<svg width="162" height="157" viewBox="0 0 162 157" fill="none" xmlns="http://www.w3.org/2000/svg">
<path d="M119.414 100.696L148.365 136.775L115.763 83.0375L119.414 100.696Z" fill="white" stroke="#00040A" stroke-linecap="round" stroke-linejoin="round"/>
<path d="M119.414 100.696L148.365 136.775L99.0938 110.066L119.414 100.696Z" fill="white" stroke="#00040A" stroke-linecap="round" stroke-linejoin="round"/>
<path d="M101.269 109.263L101.036 109.172L100.579 109.386L101.133 109.605L100.892 110.206L100.297 109.969L100.515 109.415L100.032 109.636L99.9554 109.832L99.7691 109.759L99.311 109.969L99.8281 110.172L99.7357 110.4L100.059 110.578L100.169 110.304L100.769 110.544L100.633 110.886L100.956 111.064L101.111 110.68L101.706 110.917L101.526 111.372L101.853 111.545L102.043 111.031L102.643 111.267L102.418 111.836L105.432 113.481L106.032 113.721L105.998 113.795L106.326 113.972L106.373 113.853L106.969 114.094L106.895 114.28L107.219 114.458L107.31 114.226L107.911 114.466L107.793 114.766L108.116 114.944L108.252 114.602L108.852 114.838L108.686 115.252L109.013 115.425L109.194 114.974L109.789 115.211L109.581 115.729L109.903 115.903L110.129 115.338L110.728 115.574L110.493 116.174L110.167 116.048L112.886 117.517L113.177 117.637L113.183 117.664L113.511 117.841L113.54 117.764L114.141 118.004L114.081 118.149L114.404 118.327L114.478 118.141L115.078 118.377L114.978 118.635L115.301 118.813L115.419 118.513L116.019 118.749L115.871 119.121L116.198 119.294L116.361 118.885L116.96 119.121L116.769 119.607L117.091 119.781L117.303 119.262L117.899 119.503L117.663 120.098L120.68 121.742L120.674 121.715L121.274 121.951L121.232 122.054L121.556 122.233L121.616 122.087L122.215 122.323L122.125 122.541L122.453 122.718L122.552 122.46L123.152 122.696L123.023 123.027L123.346 123.205L123.494 122.832L124.094 123.068L123.92 123.512L124.243 123.69L124.435 123.204L125.036 123.444L124.813 123.999L125.14 124.171L125.378 123.581L125.973 123.817L125.737 124.417L125.173 124.192L127.893 125.666L128.412 125.878L128.389 125.94L128.712 126.118L128.753 126.014L129.353 126.25L129.282 126.426L129.609 126.603L129.695 126.386L130.294 126.622L130.179 126.912L130.502 127.09L130.632 126.759L131.231 126.995L131.072 127.399L131.4 127.576L131.573 127.131L132.174 127.372L131.97 127.889L132.293 128.062L132.517 127.512L133.112 127.749L132.876 128.349L132.663 128.262L135.383 129.736L135.559 129.808L135.887 129.985L135.91 129.923L136.51 130.159L136.457 130.293L136.785 130.47L136.852 130.295L137.452 130.535L137.354 130.779L137.678 130.957L137.793 130.667L138.389 130.908L138.247 131.265L138.575 131.442L138.73 131.04L139.331 131.28L139.145 131.751L139.467 131.925L139.67 131.408L140.27 131.643L140.04 132.228L143.053 133.872L143.653 134.108L143.618 134.201L143.942 134.379L143.995 134.244L144.596 134.485L144.516 134.686L144.839 134.864L144.936 134.616L145.537 134.857L145.409 135.173L145.737 135.35L145.873 134.989L146.474 135.23L146.306 135.659L146.629 135.832L146.816 135.366L147.415 135.602L147.194 136.123L147.521 136.296L147.68 135.892L146.973 135.015L146.709 134.687L146.626 134.894L146.026 134.658L146.244 134.105L145.715 133.444L145.461 133.344L145.516 133.199L145.252 132.871L145.119 133.207L144.52 132.972L144.755 132.372L144.895 132.428L144.431 131.847L143.955 131.657L144.06 131.384L143.796 131.056L143.613 131.521L143.013 131.285L143.249 130.685L143.616 130.83L143.068 130.15L143.044 130.207L142.444 129.972L142.603 129.568L142.339 129.24L142.107 129.834L141.507 129.599L141.743 128.999L142.332 129.232L141.611 128.335L141.537 128.521L140.938 128.285L141.15 127.766L140.593 127.07L140.376 126.984L140.422 126.861L140.158 126.533L140.034 126.848L139.434 126.612L139.67 126.012L139.773 126.05L139.309 125.472L138.87 125.298L138.966 125.045L138.701 124.717L138.528 125.161L137.928 124.926L138.164 124.326L138.495 124.455L137.973 123.812L137.958 123.848L137.359 123.612L137.509 123.23L137.245 122.902L137.022 123.475L136.422 123.239L136.658 122.639L137.211 122.858L136.474 121.954L136.41 122.12L135.81 121.884L136.009 121.368L135.419 120.632L135.243 120.561L135.28 120.458L135.016 120.13L134.901 120.424L134.301 120.189L134.537 119.589L134.603 119.611L134.14 119.034L133.732 118.875L133.823 118.643L133.782 118.587C133.68 118.576 133.58 118.549 133.486 118.505L133.395 118.738L132.795 118.502L132.971 118.048L132.741 117.787L133.321 118.018L132.856 117.436L132.21 117.183L131.953 116.886L131.884 117.053L131.289 116.816L131.477 116.335L131.302 116.127L132.043 116.424L131.579 115.846L130.721 115.507L130.738 115.461L130.47 115.138L130.379 115.371L129.779 115.135L130.004 114.57L129.947 114.504L130.743 114.839L130.28 114.262L129.199 113.833L129.254 113.689L128.992 113.37L128.862 113.701L128.262 113.46L128.503 112.864L129.47 113.244L129.002 112.668L127.698 112.15L127.791 111.908L127.528 111.584L127.356 112.014L126.756 111.778L126.996 111.178L128.187 111.651L127.723 111.069L126.174 110.468L126.296 110.148L126.029 109.83L125.835 110.345L125.235 110.109L125.471 109.51L126.893 110.07L126.425 109.494L125.373 109.049L125.31 108.979L125.296 109.02L124.696 108.784L124.832 108.443L124.559 108.135L124.36 108.651L123.759 108.411L123.996 107.816L125.641 108.465L125.177 107.888L123.806 107.344L123.206 107.108L123.319 106.828L123.039 106.532L122.865 106.972L122.268 106.731L122.505 106.135L124.373 106.878L123.909 106.296L121.696 105.404L121.74 105.29L121.451 105.019L121.354 105.267L120.753 105.027L120.937 104.567C120.947 104.537 120.949 104.505 120.941 104.474C120.934 104.443 120.919 104.415 120.896 104.393L123.086 105.263L122.621 104.681L116.252 102.157L115.794 102.367L119.738 103.935C119.714 103.952 119.694 103.973 119.677 103.996L119.469 104.515L118.869 104.274L118.941 104.084L118.612 104.16L114.988 102.715L114.526 102.93L118.396 104.464L118.161 105.064L117.56 104.824L117.728 104.399C117.582 104.434 117.435 104.468 117.283 104.503L117.215 104.674L113.716 103.284L113.254 103.495L116.395 104.743C116.284 104.769 116.173 104.795 116.066 104.82L115.899 105.23L112.447 103.861L111.985 104.073L114.825 105.199L114.59 105.799L113.989 105.558L114.072 105.351L113.702 105.437L111.171 104.431L110.713 104.641L113.508 105.75L113.272 106.35L112.672 106.114L112.848 105.66C112.701 105.694 112.554 105.729 112.403 105.764L112.322 105.961L109.895 104.997L109.438 105.211L111.456 106.013C111.367 106.034 111.273 106.056 111.184 106.076L111.007 106.522L108.626 105.575L108.167 105.785L109.932 106.486L109.692 107.087L109.097 106.85L109.191 106.607L108.767 106.706L107.355 106.148L106.897 106.358L108.616 107.042L108.376 107.643L107.779 107.401L107.972 106.92L107.527 107.024L107.434 107.252L106.084 106.717L105.622 106.928L106.528 107.29C106.456 107.306 106.381 107.324 106.305 107.342L106.119 107.812L105.518 107.572L105.478 107.581L104.806 107.316L104.343 107.527L105.037 107.802L104.795 108.398L104.196 108.162L104.3 107.903C104.148 107.939 104.001 107.973 103.854 108.007L103.538 107.879L103.076 108.095L103.722 108.348L103.482 108.949L102.881 108.708L103.072 108.195C102.925 108.229 102.778 108.263 102.626 108.298L102.536 108.536L102.257 108.427L101.316 108.862L101.269 109.263ZM101.234 110.342L101.474 109.741L102.074 109.977L101.834 110.578L101.234 110.342ZM102.175 110.714L102.416 110.113L103.012 110.354L102.775 110.95L102.175 110.714ZM138.891 129.636L138.291 129.4L138.531 128.8L139.131 129.035L138.891 129.636ZM139.473 129.172L140.074 129.412L139.832 130.008L139.233 129.772L139.473 129.172ZM134 125.518L133.399 125.278L133.636 124.683L134.236 124.918L134 125.518ZM134.577 125.055L135.177 125.29L134.937 125.891L134.336 125.651L134.577 125.055ZM133.059 125.146L132.458 124.906L132.698 124.305L133.294 124.546L133.059 125.146ZM106.551 110.67L107.151 110.905L106.916 111.51L106.315 111.269L106.551 110.67ZM105.973 111.133L105.374 110.897L105.614 110.297L106.214 110.532L105.973 111.133ZM129.105 121.401L128.505 121.165L128.745 120.565L129.318 120.807L129.105 121.401ZM129.682 120.938L130.283 121.178L130.046 121.773L129.446 121.537L129.682 120.938ZM128.163 121.029L127.564 120.793L127.804 120.193L128.403 120.428L128.163 121.029ZM124.779 118.598L124.178 118.357L124.414 117.758L125.014 117.998L124.779 118.598ZM125.356 118.134L125.956 118.37L125.716 118.971L125.115 118.73L125.356 118.134ZM123.837 118.226L123.236 117.985L123.477 117.385L124.073 117.626L123.837 118.226ZM123.61 117.048L123.849 116.443L124.449 116.683L124.209 117.284L123.61 117.048ZM123.272 116.911L122.672 116.671L122.908 116.076L123.508 116.311L123.272 116.911ZM122.33 116.535L121.73 116.299L121.966 115.699L122.567 115.939L122.33 116.535ZM118.945 114.103L118.346 113.867L118.586 113.267L119.185 113.502L118.945 114.103ZM119.527 113.639L120.122 113.875L119.887 114.475L119.287 114.239L119.527 113.639ZM118.008 113.73L117.408 113.49L117.644 112.895L118.244 113.13L118.008 113.73ZM117.781 112.553L118.016 111.953L118.617 112.193L118.38 112.789L117.781 112.553ZM117.439 112.417L116.839 112.181L117.079 111.58L117.679 111.816L117.439 112.417ZM116.478 112.063L115.883 111.826L116.119 111.227L116.719 111.462L116.478 112.063ZM115.176 110.85L115.777 111.09L115.541 111.69L114.941 111.45L115.176 110.85ZM114.6 111.318L113.999 111.078L114.24 110.477L114.84 110.717L114.6 111.318ZM116.255 110.885L116.491 110.285L117.091 110.521L116.855 111.121L116.255 110.885ZM115.913 110.749L115.314 110.513L115.554 109.912L116.149 110.149L115.913 110.749ZM114.972 110.377L114.371 110.136L114.613 109.54L115.212 109.776L114.972 110.377ZM113.658 110.942L113.062 110.705L113.298 110.105L113.898 110.341L113.658 110.942ZM112.344 111.511L111.748 111.27L111.985 110.675L112.584 110.91L112.344 111.511ZM112.926 111.047L113.526 111.282L113.286 111.883L112.686 111.647L112.926 111.047ZM113.868 111.419L114.463 111.655L114.227 112.255L113.627 112.019L113.868 111.419ZM114.804 111.792L115.405 112.032L115.169 112.631L114.569 112.391L114.804 111.792ZM115.746 112.164L116.347 112.404L116.106 113.005L115.506 112.764L115.746 112.164ZM116.687 112.536L117.283 112.777L117.048 113.377L116.447 113.136L116.687 112.536ZM116.91 113.714L116.676 114.318L116.075 114.078L116.311 113.478L116.91 113.714ZM117.252 113.85L117.853 114.09L117.612 114.687L117.016 114.45L117.252 113.85ZM118.195 114.227L118.794 114.462L118.554 115.063L117.953 114.823L118.195 114.227ZM119.131 114.6L119.731 114.835L119.495 115.435L118.896 115.199L119.131 114.6ZM120.073 114.972L120.673 115.207L120.432 115.808L119.837 115.571L120.073 114.972ZM120.997 115.329L121.597 115.569L121.356 116.165L120.757 115.93L120.997 115.329ZM122.07 115.36L122.311 114.764L122.906 115.001L122.671 115.601L122.07 115.36ZM121.729 115.228L121.129 114.988L121.369 114.388L121.969 114.628L121.729 115.228ZM120.791 114.851L120.192 114.615L120.427 114.016L121.028 114.256L120.791 114.851ZM120.564 113.674L120.805 113.078L121.4 113.314L121.164 113.914L120.564 113.674ZM120.223 113.542L119.622 113.302L119.862 112.701L120.463 112.941L120.223 113.542ZM119.281 113.166L118.685 112.929L118.921 112.329L119.522 112.569L119.281 113.166ZM119.057 111.987L119.293 111.388L119.894 111.628L119.658 112.228L119.057 111.987ZM118.717 111.856L118.116 111.615L118.356 111.015L118.952 111.256L118.717 111.856ZM117.774 111.479L117.175 111.243L117.415 110.643L118.016 110.883L117.774 111.479ZM117.551 110.301L117.788 109.706L118.388 109.941L118.147 110.542L117.551 110.301ZM117.21 110.169L116.61 109.929L116.845 109.329L117.446 109.569L117.21 110.169ZM116.268 109.793L115.668 109.557L115.908 108.956L116.508 109.192L116.268 109.793ZM115.327 109.421L114.731 109.184L114.967 108.584L115.567 108.82L115.327 109.421ZM114.018 109.989L113.417 109.749L113.653 109.149L114.253 109.389L114.018 109.989ZM112.703 110.554L112.103 110.318L112.339 109.718L112.939 109.954L112.703 110.554ZM111.39 111.123L110.789 110.883L111.025 110.283L111.626 110.524L111.39 111.123ZM110.447 110.747L109.848 110.511L110.088 109.91L110.689 110.15L110.447 110.747ZM109.134 111.316L108.552 111.095L108.793 110.499L109.393 110.735L109.134 111.316ZM109.716 110.852L110.311 111.088L110.075 111.688L109.476 111.452L109.716 110.852ZM110.653 111.225L111.254 111.465L111.017 112.06L110.417 111.824L110.653 111.225ZM111.594 111.597L112.195 111.837L111.955 112.438L111.358 112.196L111.594 111.597ZM112.537 111.973L113.136 112.209L112.896 112.81L112.295 112.57L112.537 111.973ZM113.474 112.346L114.073 112.582L113.837 113.182L113.238 112.946L113.474 112.346ZM114.415 112.718L115.015 112.954L114.774 113.555L114.179 113.318L114.415 112.718ZM115.356 113.09L115.957 113.331L115.716 113.927L115.116 113.691L115.356 113.09ZM115.58 114.268L115.344 114.868L114.744 114.632L114.984 114.032L115.58 114.268ZM115.921 114.405L116.521 114.641L116.281 115.241L115.685 115.004L115.921 114.405ZM116.879 114.787L117.479 115.023L117.239 115.624L116.639 115.388L116.879 114.787ZM117.82 115.159L118.417 115.4L118.18 115.996L117.58 115.76L117.82 115.159ZM118.757 115.532L119.358 115.772L119.122 116.372L118.522 116.132L118.757 115.532ZM119.7 115.909L120.3 116.144L120.059 116.745L119.46 116.509L119.7 115.909ZM120.641 116.281L121.236 116.517L121.001 117.117L120.4 116.877L120.641 116.281ZM121.578 116.654L122.178 116.889L121.942 117.489L121.342 117.253L121.578 116.654ZM122.52 117.026L123.12 117.266L122.879 117.862L122.284 117.625L122.52 117.026ZM122.747 118.203L122.507 118.804L121.907 118.568L122.148 117.967L122.747 118.203ZM123.089 118.339L123.684 118.576L123.448 119.176L122.849 118.94L123.089 118.339ZM124.026 118.712L124.627 118.952L124.39 119.548L123.796 119.278L124.026 118.712ZM124.967 119.084L125.568 119.324L125.328 119.925L124.727 119.685L124.967 119.084ZM125.905 119.462L126.505 119.697L126.269 120.297L125.668 120.057L125.905 119.462ZM126.847 119.834L127.446 120.069L127.211 120.669L126.611 120.433L126.847 119.834ZM127.924 119.864L128.16 119.264L128.761 119.505L128.521 120.105L127.924 119.864ZM127.583 119.728L126.983 119.492L127.219 118.892L127.818 119.128L127.583 119.728ZM126.629 119.344L126.029 119.109L126.265 118.509L126.865 118.745L126.629 119.344ZM126.401 118.167L126.642 117.567L127.242 117.807L127.001 118.403L126.401 118.167ZM126.06 118.031L125.465 117.794L125.7 117.195L126.3 117.43L126.06 118.031ZM125.123 117.658L124.523 117.422L124.759 116.823L125.359 117.058L125.123 117.658ZM124.895 116.481L125.135 115.88L125.736 116.12L125.495 116.717L124.895 116.481ZM124.553 116.345L123.954 116.109L124.194 115.508L124.794 115.744L124.553 116.345ZM123.617 115.971L123.016 115.731L123.253 115.136L123.852 115.372L123.617 115.971ZM123.389 114.794L123.625 114.195L124.225 114.435L123.989 115.03L123.389 114.794ZM123.047 114.658L122.447 114.422L122.688 113.822L123.287 114.057L123.047 114.658ZM122.11 114.285L121.511 114.049L121.746 113.45L122.346 113.685L122.11 114.285ZM121.883 113.108L122.118 112.508L122.718 112.744L122.482 113.344L121.883 113.108ZM121.541 112.972L120.941 112.736L121.181 112.135L121.781 112.371L121.541 112.972ZM120.599 112.6L120.003 112.358L120.24 111.763L120.84 111.999L120.599 112.6ZM120.376 111.421L120.612 110.822L121.213 111.062L120.976 111.657L120.376 111.421ZM120.035 111.285L119.435 111.049L119.675 110.449L120.27 110.685L120.035 111.285ZM119.093 110.913L118.493 110.677L118.734 110.077L119.333 110.312L119.093 110.913ZM118.866 109.736L119.106 109.135L119.705 109.371L119.465 109.972L118.866 109.736ZM118.528 109.599L117.929 109.363L118.164 108.763L118.764 108.999L118.528 109.599ZM117.587 109.227L116.986 108.986L117.227 108.39L117.823 108.627L117.587 109.227ZM117.359 108.05L117.599 107.449L118.199 107.685L117.959 108.285L117.359 108.05ZM116.645 108.855L116.045 108.614L116.285 108.014L116.886 108.254L116.645 108.855ZM115.718 108.484L115.119 108.248L115.355 107.649L115.955 107.889L115.718 108.484ZM114.405 109.053L113.805 108.818L114.041 108.218L114.641 108.454L114.405 109.053ZM113.091 109.618L112.491 109.383L112.731 108.782L113.327 109.023L113.091 109.618ZM111.777 110.188L111.178 109.952L111.418 109.351L112.017 109.587L111.777 110.188ZM110.836 109.816L110.24 109.574L110.476 108.979L111.076 109.215L110.836 109.816ZM109.521 110.381L108.922 110.145L109.162 109.544L109.762 109.78L109.521 110.381ZM108.448 110.349L108.212 110.949L107.612 110.709L107.849 110.113L108.448 110.349ZM107.474 111.046L108.075 111.286L107.834 111.882L107.239 111.646L107.474 111.046ZM108.416 111.418L109.012 111.659L108.776 112.259L108.176 112.019L108.416 111.418ZM109.354 111.795L109.953 112.031L109.718 112.631L109.117 112.391L109.354 111.795ZM110.295 112.167L110.895 112.403L110.655 113.004L110.059 112.767L110.295 112.167ZM111.237 112.539L111.836 112.775L111.596 113.376L110.996 113.14L111.237 112.539ZM112.173 112.913L112.774 113.153L112.537 113.748L111.938 113.512L112.173 112.913ZM113.115 113.285L113.716 113.525L113.48 114.124L112.879 113.884L113.115 113.285ZM114.056 113.657L114.657 113.897L114.417 114.497L113.817 114.262L114.056 113.657ZM114.285 114.838L114.045 115.439L113.444 115.199L113.684 114.598L114.285 114.838ZM114.621 114.971L115.222 115.211L114.986 115.811L114.385 115.571L114.621 114.971ZM115.564 115.347L116.163 115.583L115.923 116.184L115.322 115.944L115.564 115.347ZM116.505 115.72L117.105 115.955L116.864 116.556L116.264 116.316L116.505 115.72ZM117.442 116.093L118.042 116.328L117.806 116.928L117.206 116.692L117.442 116.093ZM118.383 116.465L118.984 116.705L118.743 117.301L118.148 117.064L118.383 116.465ZM119.325 116.837L119.925 117.077L119.684 117.673L119.084 117.437L119.325 116.837ZM120.262 117.21L120.862 117.45L120.627 118.05L120.026 117.809L120.262 117.21ZM121.203 117.582L121.804 117.822L121.564 118.423L120.968 118.186L121.203 117.582ZM121.432 118.763L121.192 119.364L120.591 119.124L120.831 118.523L121.432 118.763ZM121.772 118.895L122.356 119.144L122.121 119.744L121.52 119.503L121.772 118.895ZM122.71 119.273L123.31 119.508L123.074 120.108L122.474 119.868L122.71 119.273ZM123.652 119.645L124.251 119.88L124.011 120.481L123.412 120.245L123.652 119.645ZM124.593 120.017L125.194 120.257L124.953 120.853L124.353 120.617L124.593 120.017ZM125.53 120.39L126.131 120.63L125.895 121.23L125.294 120.989L125.53 120.39ZM126.471 120.762L127.072 121.002L126.832 121.603L126.236 121.361L126.471 120.762ZM127.414 121.138L128.009 121.375L127.773 121.975L127.185 121.727L127.414 121.138ZM128.351 121.511L128.95 121.747L128.715 122.347L128.115 122.111L128.351 121.511ZM129.292 121.883L129.892 122.119L129.652 122.72L129.052 122.484L129.292 121.883ZM130.593 123.092L129.993 122.856L130.234 122.255L130.834 122.495L130.593 123.092ZM131.171 122.628L131.771 122.869L131.536 123.468L130.935 123.228L131.171 122.628ZM129.52 123.06L129.28 123.661L128.679 123.421L128.92 122.825L129.52 123.06ZM129.862 123.197L130.457 123.433L130.221 124.033L129.621 123.797L129.862 123.197ZM130.799 123.57L131.398 123.805L131.162 124.405L130.563 124.169L130.799 123.57ZM131.74 123.942L132.341 124.182L132.1 124.783L131.5 124.542L131.74 123.942ZM132.814 123.978L133.054 123.377L133.654 123.613L133.414 124.213L132.814 123.978ZM132.472 123.841L131.876 123.6L132.112 123L132.713 123.241L132.472 123.841ZM132.249 122.663L132.485 122.063L133.085 122.299L132.849 122.899L132.249 122.663ZM131.908 122.527L131.307 122.287L131.548 121.69L132.143 121.927L131.908 122.527ZM130.966 122.155L130.365 121.915L130.606 121.314L131.206 121.554L130.966 122.155ZM130.743 120.977L130.979 120.377L131.578 120.613L131.338 121.213L130.743 120.977ZM130.401 120.84L129.8 120.6L130.037 120.005L130.637 120.241L130.401 120.84ZM129.46 120.468L128.859 120.228L129.099 119.627L129.696 119.869L129.46 120.468ZM129.232 119.291L129.472 118.69L130.072 118.926L129.832 119.527L129.232 119.291ZM128.895 119.154L128.294 118.914L128.53 118.314L129.131 118.554L128.895 119.154ZM127.952 118.777L127.352 118.537L127.588 117.938L128.188 118.178L127.952 118.777ZM127.724 117.596L127.965 117L128.56 117.236L128.325 117.836L127.724 117.596ZM127.383 117.464L126.782 117.224L127.023 116.623L127.623 116.863L127.383 117.464ZM126.446 117.091L125.845 116.851L126.081 116.251L126.682 116.491L126.446 117.091ZM126.219 115.914L126.453 115.31L127.054 115.55L126.818 116.15L126.219 115.914ZM125.877 115.778L125.276 115.537L125.516 114.937L126.117 115.177L125.877 115.778ZM124.934 115.401L124.339 115.164L124.575 114.565L125.176 114.805L124.934 115.401ZM124.711 114.223L124.948 113.628L125.548 113.863L125.312 114.463L124.711 114.223ZM124.371 114.091L123.77 113.851L124.01 113.25L124.606 113.491L124.371 114.091ZM123.44 113.726L122.84 113.49L123.081 112.889L123.681 113.13L123.44 113.726ZM123.217 112.548L123.454 111.952L124.019 112.182L123.779 112.783L123.217 112.548ZM122.876 112.416L122.276 112.176L122.511 111.576L123.112 111.816L122.876 112.416ZM121.934 112.039L121.334 111.804L121.574 111.203L122.175 111.443L121.934 112.039ZM121.712 110.866L121.947 110.266L122.547 110.502L122.307 111.102L121.712 110.866ZM121.37 110.729L120.769 110.489L121.005 109.89L121.606 110.13L121.37 110.729ZM120.428 110.353L119.828 110.117L120.068 109.517L120.669 109.757L120.428 110.353ZM120.2 109.176L120.441 108.58L121.041 108.815L120.801 109.416L120.2 109.176ZM119.864 109.043L119.263 108.803L119.499 108.203L120.099 108.443L119.864 109.043ZM118.914 108.678L118.315 108.442L118.555 107.841L119.15 108.078L118.914 108.678ZM118.687 107.5L118.927 106.9L119.523 107.141L119.287 107.741L118.687 107.5ZM118.345 107.364L117.75 107.127L117.986 106.528L118.586 106.768L118.345 107.364ZM117.032 107.933L116.436 107.697L116.672 107.097L117.272 107.333L117.032 107.933ZM116.095 107.56L115.494 107.32L115.731 106.725L116.33 106.961L116.095 107.56ZM114.781 108.13L114.181 107.89L114.421 107.289L115.016 107.526L114.781 108.13ZM113.467 108.695L112.866 108.455L113.107 107.858L113.703 108.095L113.467 108.695ZM112.153 109.264L111.535 108.99L111.776 108.39L112.375 108.625L112.153 109.264ZM111.211 108.888L110.616 108.651L110.851 108.051L111.452 108.291L111.211 108.888ZM109.902 109.456L109.301 109.216L109.537 108.616L110.138 108.856L109.902 109.456ZM108.823 109.421L108.588 110.021L107.988 109.785L108.224 109.185L108.823 109.421ZM107.273 110.586L106.673 110.35L106.914 109.749L107.51 109.991L107.273 110.586ZM106.33 110.205L105.73 109.969L105.984 109.346L106.585 109.587L106.33 110.205ZM105.016 110.774L104.42 110.533L104.657 109.938L105.256 110.173L105.016 110.774ZM104.884 111.115L104.644 111.716L104.044 111.475L104.284 110.875L104.884 111.115ZM105.226 111.251L105.821 111.488L105.586 112.088L104.985 111.847L105.226 111.251ZM106.163 111.624L106.763 111.86L106.523 112.461L105.927 112.224L106.163 111.624ZM107.104 111.996L107.704 112.232L107.464 112.833L106.864 112.597L107.104 111.996ZM108.046 112.368L108.641 112.605L108.405 113.205L107.806 112.969L108.046 112.368ZM108.983 112.741L109.584 112.981L109.348 113.581L108.747 113.341L108.983 112.741ZM109.924 113.113L110.525 113.353L110.285 113.954L109.684 113.714L109.924 113.113ZM110.867 113.49L111.462 113.727L111.226 114.326L110.626 114.09L110.867 113.49ZM111.804 113.863L112.403 114.099L112.167 114.698L111.568 114.463L111.804 113.863ZM112.745 114.235L113.346 114.475L113.104 115.071L112.509 114.835L112.745 114.235ZM112.973 115.412L112.732 116.013L112.132 115.773L112.373 115.176L112.973 115.412ZM113.31 115.549L113.91 115.785L113.674 116.385L113.074 116.149L113.31 115.549ZM114.251 115.921L114.851 116.157L114.615 116.757L114.015 116.521L114.251 115.921ZM115.193 116.293L115.793 116.534L115.552 117.13L114.952 116.894L115.193 116.293ZM116.14 116.65L116.736 116.891L116.5 117.491L115.9 117.251L116.14 116.65ZM117.078 117.027L117.677 117.263L117.442 117.863L116.834 117.615L117.078 117.027ZM118.019 117.399L118.619 117.635L118.379 118.236L117.779 118L118.019 117.399ZM118.961 117.771L119.556 118.008L119.32 118.608L118.72 118.372L118.961 117.771ZM119.897 118.145L120.498 118.385L120.261 118.98L119.662 118.744L119.897 118.145ZM120.125 119.322L119.885 119.922L119.285 119.687L119.525 119.086L120.125 119.322ZM120.467 119.458L121.062 119.695L120.826 120.294L120.227 120.059L120.467 119.458ZM121.404 119.831L122.004 120.071L121.768 120.666L121.168 120.431L121.404 119.831ZM122.345 120.203L122.946 120.443L122.706 121.044L122.109 120.803L122.345 120.203ZM123.288 120.579L123.887 120.815L123.647 121.416L123.046 121.176L123.288 120.579ZM124.229 120.952L124.824 121.188L124.588 121.788L123.989 121.552L124.229 120.952ZM125.166 121.325L125.766 121.56L125.53 122.16L124.93 121.924L125.166 121.325ZM126.107 121.697L126.707 121.932L126.468 122.537L125.867 122.297L126.107 121.697ZM127.044 122.07L127.645 122.31L127.408 122.905L126.808 122.669L127.044 122.07ZM127.986 122.442L128.586 122.682L128.351 123.282L127.75 123.041L127.986 122.442ZM128.213 123.619L127.973 124.219L127.373 123.984L127.614 123.383L128.213 123.619ZM128.555 123.755L129.151 123.996L128.916 124.596L128.315 124.356L128.555 123.755ZM129.492 124.128L130.093 124.368L129.857 124.968L129.256 124.728L129.492 124.128ZM130.434 124.505L131.034 124.74L130.794 125.341L130.199 125.104L130.434 124.505ZM131.376 124.877L131.971 125.113L131.735 125.713L131.136 125.477L131.376 124.877ZM132.313 125.25L132.913 125.49L132.677 126.085L132.077 125.849L132.313 125.25ZM133.254 125.622L133.855 125.862L133.614 126.458L133.018 126.221L133.254 125.622ZM134.195 125.994L134.796 126.234L134.556 126.835L133.955 126.594L134.195 125.994ZM135.132 126.367L135.733 126.607L135.497 127.207L134.897 126.966L135.132 126.367ZM136.075 126.743L136.674 126.979L136.434 127.58L135.838 127.338L136.075 126.743ZM135.361 127.548L135.125 128.148L134.525 127.908L134.76 127.308L135.361 127.548ZM135.702 127.68L136.302 127.92L136.062 128.521L135.462 128.281L135.702 127.68ZM136.644 128.057L137.239 128.293L137.004 128.893L136.403 128.653L136.644 128.057ZM137.581 128.43L138.181 128.665L137.945 129.265L137.345 129.029L137.581 128.43ZM138.659 128.46L138.895 127.86L139.495 128.101L139.255 128.701L138.659 128.46ZM138.317 128.324L137.717 128.088L137.953 127.488L138.553 127.724L138.317 128.324ZM137.376 127.952L136.776 127.716L137.016 127.115L137.616 127.351L137.376 127.952ZM137.148 126.775L137.388 126.174L137.989 126.414L137.748 127.01L137.148 126.775ZM136.811 126.637L136.211 126.402L136.447 125.802L137.047 126.038L136.811 126.637ZM135.869 126.265L135.27 126.03L135.51 125.429L136.105 125.666L135.869 126.265ZM135.642 125.088L135.882 124.487L136.482 124.723L136.241 125.324L135.642 125.088ZM135.3 124.952L134.705 124.715L134.941 124.115L135.541 124.356L135.3 124.952ZM134.363 124.579L133.763 124.343L133.999 123.743L134.599 123.979L134.363 124.579ZM134.135 123.402L134.376 122.801L134.972 123.042L134.735 123.637L134.135 123.402ZM133.794 123.265L133.198 123.029L133.434 122.429L134.034 122.665L133.794 123.265ZM133.571 122.087L133.806 121.488L134.407 121.728L134.167 122.328L133.571 122.087ZM133.229 121.951L132.629 121.715L132.869 121.114L133.466 121.356L133.229 121.951ZM132.287 121.579L131.688 121.343L131.928 120.742L132.528 120.978L132.287 121.579ZM132.06 120.402L132.3 119.801L132.901 120.041L132.659 120.638L132.06 120.402ZM131.722 120.264L131.123 120.029L131.359 119.429L131.958 119.665L131.722 120.264ZM130.781 119.892L130.181 119.657L130.422 119.056L131.017 119.293L130.781 119.892ZM130.553 118.715L130.794 118.115L131.394 118.355L131.154 118.956L130.553 118.715ZM130.212 118.579L129.617 118.342L129.852 117.743L130.452 117.978L130.212 118.579ZM129.275 118.206L128.675 117.97L128.911 117.371L129.511 117.606L129.275 118.206ZM129.047 117.029L129.287 116.428L129.884 116.669L129.647 117.265L129.047 117.029ZM128.705 116.893L128.106 116.657L128.346 116.056L128.946 116.292L128.705 116.893ZM127.768 116.52L127.169 116.284L127.405 115.684L128.004 115.92L127.768 116.52ZM127.541 115.342L127.777 114.743L128.377 114.983L128.141 115.578L127.541 115.342ZM127.199 115.206L126.599 114.97L126.84 114.37L127.435 114.606L127.199 115.206ZM126.258 114.834L125.661 114.593L125.898 113.998L126.498 114.233L126.258 114.834ZM126.035 113.656L126.27 113.056L126.871 113.296L126.634 113.892L126.035 113.656ZM125.693 113.52L125.093 113.284L125.333 112.683L125.929 112.92L125.693 113.52ZM124.751 113.148L124.151 112.907L124.392 112.311L124.992 112.547L124.751 113.148ZM124.528 111.969L124.764 111.37L125.364 111.606L125.123 112.206L124.528 111.969ZM124.187 111.833L123.587 111.597L123.823 110.998L124.422 111.233L124.187 111.833ZM123.245 111.461L122.644 111.221L122.88 110.621L123.481 110.861L123.245 111.461ZM123.017 110.284L123.258 109.683L123.858 109.924L123.617 110.52L123.017 110.284ZM122.68 110.147L122.081 109.911L122.316 109.311L122.916 109.547L122.68 110.147ZM121.739 109.775L121.139 109.539L121.375 108.939L121.975 109.175L121.739 109.775ZM121.511 108.598L121.751 107.997L122.351 108.233L122.111 108.833L121.511 108.598ZM121.169 108.461L120.57 108.226L120.81 107.625L121.41 107.861L121.169 108.461ZM120.233 108.088L119.632 107.848L119.869 107.253L120.468 107.489L120.233 108.088ZM120.005 106.911L120.241 106.311L120.84 106.547L120.605 107.147L120.005 106.911ZM119.663 106.775L119.063 106.539L119.304 105.938L119.903 106.174L119.663 106.775ZM118.726 106.402L118.126 106.162L118.362 105.566L118.962 105.802L118.726 106.402ZM117.413 106.971L116.812 106.731L117.048 106.131L117.648 106.367L117.413 106.971ZM116.47 106.595L115.871 106.359L116.111 105.758L116.706 105.995L116.47 106.595ZM115.157 107.164L114.556 106.924L114.796 106.323L115.397 106.563L115.157 107.164ZM113.843 107.729L113.243 107.493L113.483 106.892L114.083 107.128L113.843 107.729ZM112.529 108.298L111.933 108.057L112.169 107.457L112.769 107.698L112.529 108.298ZM111.592 107.925L110.991 107.685L111.227 107.085L111.828 107.326L111.592 107.925ZM110.278 108.49L109.677 108.25L109.914 107.655L110.514 107.891L110.278 108.49ZM109.2 108.46L108.963 109.055L108.364 108.819L108.604 108.219L109.2 108.46ZM107.65 109.624L107.049 109.384L107.29 108.788L107.89 109.024L107.65 109.624ZM106.709 109.252L106.112 109.011L106.348 108.412L106.949 108.652L106.709 109.252ZM105.399 109.816L104.799 109.581L105.035 108.981L105.635 109.221L105.399 109.816ZM104.085 110.386L103.484 110.146L103.721 109.55L104.321 109.786L104.085 110.386ZM103.348 110.487L103.949 110.727L103.712 111.323L103.112 111.087L103.348 110.487ZM102.742 112.037L102.978 111.438L103.578 111.673L103.338 112.274L102.742 112.037ZM103.679 112.41L103.92 111.81L104.519 112.045L104.28 112.65L103.679 112.41ZM104.621 112.782L104.857 112.183L105.457 112.423L105.22 113.018L104.621 112.782ZM105.562 113.154L105.798 112.555L106.399 112.795L106.158 113.396L105.562 113.154ZM106.499 113.527L106.74 112.931L107.34 113.167L107.1 113.768L106.499 113.527ZM107.44 113.899L107.677 113.304L108.277 113.54L108.041 114.14L107.44 113.899ZM108.383 114.276L108.619 113.676L109.218 113.912L108.978 114.513L108.383 114.276ZM109.32 114.649L109.56 114.048L110.156 114.289L109.92 114.885L109.32 114.649ZM110.261 115.021L110.497 114.421L111.098 114.661L110.862 115.261L110.261 115.021ZM111.438 114.793L112.039 115.033L111.799 115.634L111.203 115.393L111.438 114.793ZM110.828 116.344L111.068 115.744L111.669 115.984L111.429 116.584L110.828 116.344ZM111.77 116.716L112.01 116.116L112.606 116.357L112.369 116.952L111.77 116.716ZM112.711 117.088L112.948 116.493L113.547 116.729L113.312 117.328L112.711 117.088ZM113.653 117.465L113.889 116.865L114.489 117.101L114.249 117.702L113.653 117.465ZM114.59 117.838L114.831 117.237L115.43 117.473L115.19 118.074L114.59 117.838ZM115.532 118.21L115.767 117.61L116.368 117.85L116.131 118.446L115.532 118.21ZM116.469 118.583L116.709 117.982L117.31 118.222L117.068 118.819L116.469 118.583ZM117.41 118.955L117.651 118.359L118.251 118.594L118.011 119.195L117.41 118.955ZM118.587 118.727L119.188 118.967L118.952 119.567L118.351 119.327L118.587 118.727ZM117.981 120.277L118.217 119.678L118.818 119.918L118.582 120.517L117.981 120.277ZM118.918 120.65L119.159 120.05L119.759 120.29L119.519 120.89L118.918 120.65ZM119.86 121.022L120.101 120.426L120.696 120.663L120.461 121.263L119.86 121.022ZM120.802 121.399L121.038 120.799L121.638 121.035L121.402 121.635L120.802 121.399ZM121.739 121.772L121.979 121.171L122.58 121.411L122.339 122.008L121.739 121.772ZM122.681 122.144L122.921 121.543L123.517 121.784L123.281 122.384L122.681 122.144ZM123.622 122.516L123.858 121.916L124.458 122.156L124.223 122.756L123.622 122.516ZM124.559 122.889L124.799 122.288L125.4 122.528L125.16 123.129L124.559 122.889ZM125.501 123.265L125.742 122.665L126.337 122.901L126.101 123.501L125.501 123.265ZM126.678 123.038L127.278 123.273L127.042 123.873L126.443 123.637L126.678 123.038ZM126.073 124.588L126.31 123.992L126.909 124.228L126.673 124.828L126.073 124.588ZM127.01 124.961L127.251 124.364L127.851 124.6L127.61 125.201L127.01 124.961ZM127.952 125.337L128.188 124.738L128.788 124.973L128.552 125.573L127.952 125.337ZM128.894 125.709L129.129 125.11L129.73 125.35L129.493 125.945L128.894 125.709ZM129.83 126.082L130.071 125.482L130.671 125.722L130.431 126.323L129.83 126.082ZM130.772 126.454L131.008 125.855L131.608 126.095L131.373 126.695L130.772 126.454ZM131.713 126.826L131.95 126.231L132.55 126.467L132.314 127.067L131.713 126.826ZM132.651 127.204L132.891 126.603L133.491 126.839L133.251 127.44L132.651 127.204ZM133.833 126.975L134.429 127.216L134.192 127.812L133.593 127.576L133.833 126.975ZM133.223 128.526L133.458 127.926L134.058 128.162L133.822 128.762L133.223 128.526ZM134.164 128.898L134.4 128.299L134.999 128.534L134.759 129.135L134.164 128.898ZM135.101 129.271L135.341 128.671L135.941 128.906L135.701 129.507L135.101 129.271ZM136.042 129.643L136.278 129.044L136.879 129.284L136.643 129.883L136.042 129.643ZM136.984 130.015L137.219 129.416L137.82 129.656L137.58 130.257L136.984 130.015ZM137.922 130.393L138.161 129.788L138.762 130.028L138.521 130.629L137.922 130.393ZM138.863 130.765L139.099 130.165L139.699 130.401L139.463 131.001L138.863 130.765ZM139.804 131.137L140.04 130.537L140.64 130.773L140.4 131.374L139.804 131.137ZM140.982 130.909L141.579 131.094L141.338 131.69L140.738 131.454L140.982 130.909ZM140.371 132.46L140.612 131.859L141.211 132.095L140.971 132.696L140.371 132.46ZM141.313 132.832L141.549 132.233L142.148 132.468L141.913 133.068L141.313 132.832ZM142.25 133.205L142.49 132.605L143.091 132.845L142.851 133.445L142.25 133.205ZM145.91 133.962L145.67 134.563L145.075 134.326L145.311 133.726L145.91 133.962ZM144.964 133.53L144.729 134.13L144.128 133.889L144.365 133.294L144.964 133.53ZM143.786 133.753L143.187 133.517L143.413 132.92L144.01 133.161L143.786 133.753ZM144.396 132.202L144.156 132.803L143.557 132.567L143.797 131.966L144.396 132.202ZM143.455 131.83L143.219 132.43L142.619 132.19L142.855 131.594L143.455 131.83ZM142.278 132.058L141.677 131.818L141.913 131.218L142.514 131.458L142.278 132.058ZM142.884 130.508L142.648 131.107L142.047 130.867L142.288 130.271L142.884 130.508ZM141.947 130.135L141.706 130.735L141.11 130.494L141.346 129.894L141.947 130.135ZM140.77 130.362L140.169 130.122L140.405 129.522L141.005 129.763L140.77 130.362ZM141.375 128.812L141.139 129.412L140.54 129.176L140.774 128.572L141.375 128.812ZM140.169 129.075L139.568 128.835L139.808 128.234L140.409 128.474L140.169 129.075ZM140.779 127.524L140.539 128.125L139.943 127.888L140.179 127.288L140.779 127.524ZM139.837 127.152L139.602 127.752L139.001 127.512L139.238 126.916L139.837 127.152ZM138.66 127.38L138.06 127.139L138.3 126.539L138.896 126.78L138.66 127.38ZM139.27 125.829L139.03 126.429L138.43 126.189L138.671 125.593L139.27 125.829ZM138.329 125.457L138.089 126.057L137.493 125.816L137.728 125.216L138.329 125.457ZM137.152 125.684L136.551 125.444L136.787 124.844L137.388 125.085L137.152 125.684ZM137.758 124.134L137.522 124.734L136.921 124.494L137.162 123.898L137.758 124.134ZM136.821 123.761L136.58 124.362L135.98 124.122L136.22 123.521L136.821 123.761ZM135.644 123.989L135.043 123.749L135.279 123.149L135.879 123.389L135.644 123.989ZM136.28 122.469L136.044 123.069L135.444 122.833L135.68 122.234L136.28 122.469ZM135.103 122.697L134.502 122.457L134.742 121.856L135.343 122.096L135.103 122.697ZM135.713 121.146L135.473 121.747L134.873 121.511L135.113 120.91L135.713 121.146ZM134.771 120.774L134.536 121.374L133.935 121.133L134.172 120.538L134.771 120.774ZM133.594 121.002L132.994 120.761L133.235 120.165L133.83 120.402L133.594 121.002ZM134.204 119.451L133.964 120.051L133.365 119.816L133.605 119.215L134.204 119.451ZM133.263 119.079L133.023 119.679L132.427 119.438L132.663 118.843L133.263 119.079ZM132.086 119.306L131.485 119.066L131.721 118.466L132.322 118.707L132.086 119.306ZM132.692 117.756L132.456 118.356L131.856 118.12L132.096 117.52L132.692 117.756ZM131.759 117.42L131.518 118.021L130.918 117.78L131.159 117.184L131.759 117.42ZM130.581 117.648L129.981 117.407L130.216 116.808L130.817 117.048L130.581 117.648ZM131.187 116.098L130.951 116.697L130.352 116.462L130.587 115.862L131.187 116.098ZM130.25 115.725L130.01 116.325L129.409 116.085L129.649 115.484L130.25 115.725ZM129.073 115.952L128.472 115.712L128.708 115.112L129.309 115.353L129.073 115.952ZM129.679 114.402L129.443 115.002L128.843 114.766L129.078 114.162L129.679 114.402ZM128.737 114.03L128.502 114.63L127.901 114.39L128.153 113.8L128.737 114.03ZM127.8 113.657L127.559 114.253L126.959 114.018L127.2 113.417L127.8 113.657ZM128.172 112.716L127.932 113.317L127.336 113.075L127.573 112.48L128.172 112.716ZM127.237 112.37L127.001 112.97L126.401 112.73L126.637 112.13L127.237 112.37ZM126.059 112.594L125.459 112.358L125.7 111.757L126.3 111.997L126.059 112.594ZM126.669 111.043L126.429 111.643L125.828 111.403L126.07 110.807L126.669 111.043ZM125.728 110.671L125.491 111.266L124.891 111.03L125.127 110.43L125.728 110.671ZM124.55 110.894L123.95 110.658L124.186 110.058L124.786 110.299L124.55 110.894ZM125.155 109.344L124.92 109.944L124.319 109.703L124.559 109.103L125.155 109.344ZM124.213 108.986L123.972 109.587L123.372 109.347L123.612 108.746L124.213 108.986ZM123.277 108.599L123.04 109.194L122.441 108.958L122.676 108.359L123.277 108.599ZM123.649 107.657L123.413 108.257L122.813 108.017L123.049 107.422L123.649 107.657ZM122.72 107.32L122.48 107.921L121.879 107.681L122.12 107.08L122.72 107.32ZM121.542 107.543L120.943 107.307L121.178 106.708L121.779 106.948L121.542 107.543ZM122.148 105.993L121.912 106.593L121.311 106.353L121.547 105.753L122.148 105.993ZM121.211 105.62L120.97 106.216L120.37 105.981L120.61 105.38L121.211 105.62ZM120.029 105.849L119.429 105.609L119.669 105.008L120.269 105.244L120.029 105.849ZM120.012 104.144C120.012 104.114 120.005 104.085 119.992 104.059L120.715 104.36C120.684 104.363 120.655 104.373 120.629 104.391C120.603 104.408 120.583 104.432 120.569 104.46L120.387 104.925L119.79 104.684L120.012 104.144ZM118.719 104.638L119.319 104.878L119.083 105.473L118.483 105.238L118.719 104.638ZM118.005 105.443L117.769 106.043L117.176 105.796L117.416 105.195L118.005 105.443ZM116.454 104.833L117.054 105.069L116.813 105.669L116.214 105.434L116.454 104.833ZM115.14 105.402L115.74 105.638L115.5 106.239L114.899 105.999L115.14 105.402ZM113.826 105.967L114.427 106.207L114.187 106.808L113.59 106.567L113.826 105.967ZM113.112 106.772L112.877 107.372L112.276 107.132L112.513 106.537L113.112 106.772ZM111.561 106.162L112.158 106.403L111.922 107.003L111.321 106.763L111.561 106.162ZM110.248 106.732L110.848 106.967L110.607 107.568L110.008 107.332L110.248 106.732ZM108.934 107.301L109.534 107.537L109.294 108.137L108.693 107.897L108.934 107.301ZM108.22 108.102L107.979 108.702L107.38 108.467L107.62 107.866L108.22 108.102ZM106.67 107.496L107.269 107.732L107.034 108.331L106.434 108.096L106.67 107.496ZM105.355 108.061L105.956 108.301L105.72 108.901L105.12 108.661L105.355 108.061ZM104.046 108.629L104.642 108.866L104.406 109.466L103.806 109.23L104.046 108.629ZM103.333 109.434L103.092 110.035L102.492 109.795L102.732 109.194L103.333 109.434ZM102.391 109.062L102.15 109.659L101.555 109.422L101.79 108.822L102.391 109.062Z" fill="#00040A"/>
<path d="M147.65 136.387L148.365 136.775L148.132 136.482L148.099 136.564L147.65 136.387Z" fill="#00040A"/>
<path d="M99.0939 110.066L99.1434 110.097L99.1699 110.03L99.0939 110.066Z" fill="#00040A"/>
<path d="M121.334 103.089L117.514 101.571L117.052 101.782L121.797 103.666L121.334 103.089Z" fill="#00040A"/>
<path d="M120.049 101.491L118.782 100.989L118.319 101.2L120.513 102.069L120.049 101.491Z" fill="#00040A"/>
<path d="M120.491 105.816L148.365 136.775L99.0938 110.066L120.491 105.816Z" fill="white" stroke="#00040A" stroke-linecap="round" stroke-linejoin="round"/>
<path d="M117.695 106.375L122.824 108.413L122.273 107.8L118.355 106.244L117.695 106.375Z" fill="#00040A"/>
<path d="M116.03 106.702L124.217 109.952L123.665 109.339L116.69 106.571L116.03 106.702Z" fill="#00040A"/>
<path d="M114.396 107.027L125.579 111.466L125.023 110.854L115.06 106.895L114.396 107.027Z" fill="#00040A"/>
<path d="M112.732 107.359L126.968 113.011L126.415 112.393L113.391 107.228L112.732 107.359Z" fill="#00040A"/>
<path d="M110.906 107.724L128.49 114.703L127.938 114.09L111.566 107.593L110.906 107.724Z" fill="#00040A"/>
<path d="M109.075 108.085L130.017 116.399L129.464 115.781L109.739 107.954L109.075 108.085Z" fill="#00040A"/>
<path d="M107.249 108.45L131.543 118.09L130.987 117.478L107.913 108.319L107.249 108.45Z" fill="#00040A"/>
<path d="M105.422 108.811L133.065 119.782L132.514 119.169L106.082 108.68L105.422 108.811Z" fill="#00040A"/>
<path d="M103.595 109.171L134.592 121.478L134.041 120.865L104.254 109.041L103.595 109.171Z" fill="#00040A"/>
<path d="M101.764 109.537L136.114 123.17L135.562 122.557L102.428 109.406L101.764 109.537Z" fill="#00040A"/>
<path d="M99.9368 109.898L137.64 124.861L137.088 124.248L100.601 109.766L99.9368 109.898Z" fill="#00040A"/>
<path d="M103.12 112.249L139.163 126.558L138.611 125.945L100.405 110.779L103.12 112.249Z" fill="#00040A"/>
<path d="M110.618 116.313L140.689 128.249L140.137 127.636L107.904 114.843L110.618 116.313Z" fill="#00040A"/>
<path d="M118.119 120.381L142.217 129.945L141.661 129.333L115.403 118.907L118.119 120.381Z" fill="#00040A"/>
<path d="M125.616 124.445L143.738 131.637L143.187 131.024L122.901 122.97L125.616 124.445Z" fill="#00040A"/>
<path d="M133.115 128.509L145.265 133.333L144.708 132.716L130.4 127.034L133.115 128.509Z" fill="#00040A"/>
<path d="M140.613 132.573L146.787 135.025L146.235 134.412L137.898 131.102L140.613 132.573Z" fill="#00040A"/>
<path d="M148.118 136.64L148.314 136.716L147.762 136.103L145.398 135.166L148.118 136.64Z" fill="#00040A"/>
<path d="M120.491 105.816L148.365 136.775L102.899 129.055L120.491 105.816Z" fill="white" stroke="#00040A" stroke-linecap="round" stroke-linejoin="round"/>
<path d="M141.5 130.136L146.112 134.262L143.798 131.694L141.934 130.02C141.808 130.064 141.644 130.107 141.5 130.136Z" fill="#00040A"/>
<path d="M140.369 130.357L147.318 136.596L147.993 136.711L140.825 130.279L140.369 130.357Z" fill="#00040A"/>
<path d="M139.237 130.56L145.651 136.314L146.325 136.429L139.693 130.463C139.561 130.499 139.391 130.534 139.237 130.56Z" fill="#00040A"/>
<path d="M138.07 130.748L143.949 136.025L144.624 136.14L138.543 130.685C138.384 130.708 138.206 130.73 138.07 130.748Z" fill="#00040A"/>
<path d="M136.742 130.917L142.086 135.708L142.765 135.822L137.23 130.854C137.061 130.875 136.901 130.894 136.742 130.917Z" fill="#00040A"/>
<path d="M135.392 131.067L140.232 135.39L140.906 135.5L135.914 131.03C135.731 131.049 135.562 131.051 135.392 131.067Z" fill="#00040A"/>
<path d="M133.999 131.172L138.347 135.074L139.021 135.189L134.502 131.134C134.336 131.145 134.166 131.161 133.999 131.172Z" fill="#00040A"/>
<path d="M132.576 131.25L136.479 134.758L137.154 134.873L133.108 131.239C132.924 131.235 132.753 131.246 132.576 131.25Z" fill="#00040A"/>
<path d="M131.106 131.292L134.611 134.438L135.286 134.553L131.638 131.276C131.46 131.28 131.293 131.287 131.106 131.292Z" fill="#00040A"/>
<path d="M129.585 131.291L132.743 134.123L133.418 134.237L130.151 131.304C129.963 131.301 129.773 131.294 129.585 131.291Z" fill="#00040A"/>
<path d="M128.037 131.257L130.876 133.807L131.551 133.922L128.585 131.27C128.41 131.264 128.222 131.266 128.037 131.257Z" fill="#00040A"/>
<path d="M126.406 131.149L129.008 133.487L129.683 133.606L127.001 131.208L126.406 131.149Z" fill="#00040A"/>
<path d="M124.735 131.013L127.14 133.171L127.815 133.286L125.356 131.08L124.735 131.013Z" fill="#00040A"/>
<path d="M122.992 130.805L125.273 132.855L125.952 132.969L123.624 130.878C123.411 130.853 123.204 130.831 122.992 130.805Z" fill="#00040A"/>
<path d="M121.16 130.519L123.406 132.54L124.085 132.654L121.833 130.629C121.603 130.589 121.384 130.556 121.16 130.519Z" fill="#00040A"/>
<path d="M119.25 130.166L121.537 132.22L122.216 132.334L119.971 130.317C119.727 130.276 119.487 130.214 119.25 130.166Z" fill="#00040A"/>
<path d="M117.241 129.728L119.67 131.908L120.35 132.022L117.975 129.895C117.73 129.83 117.484 129.784 117.241 129.728Z" fill="#00040A"/>
<path d="M115.088 129.151L117.802 131.588L118.482 131.702L115.869 129.358L115.088 129.151Z" fill="#00040A"/>
<path d="M112.781 128.421L115.947 131.265L116.626 131.379L113.651 128.688C113.336 128.606 113.048 128.518 112.781 128.421Z" fill="#00040A"/>
<path d="M110.223 127.516L114.054 130.956L114.733 131.07L111.167 127.859C110.858 127.743 110.546 127.633 110.223 127.516Z" fill="#00040A"/>
<path d="M107.41 126.331L112.203 130.636L112.855 130.752L108.429 126.774C108.104 126.629 107.752 126.49 107.41 126.331Z" fill="#00040A"/>
<path d="M105.34 125.828L110.336 130.316L111.011 130.431L105.563 125.536L105.34 125.828Z" fill="#00040A"/>
<path d="M104.725 126.638L108.468 130L109.147 130.114L104.948 126.346L104.725 126.638Z" fill="#00040A"/>
<path d="M104.111 127.448L106.6 129.685L107.28 129.798L104.334 127.156L104.111 127.448Z" fill="#00040A"/>
<path d="M103.498 128.258L104.733 129.365L105.412 129.478L103.721 127.967L103.498 128.258Z" fill="#00040A"/>
<path d="M102.9 129.055L103.545 129.163L103.11 128.771L102.9 129.055Z" fill="#00040A"/>
<path d="M96.8828 107.576C96.2705 106.629 95.6069 105.715 94.895 104.84" stroke="#008080" stroke-linecap="round" stroke-linejoin="round" stroke-dasharray="1 1"/>
<path d="M90.2045 100.093C71.753 84.7609 38.3483 88.496 37.8571 105.241C37.5927 114.297 47.7613 116.083 49.9724 106.108C51.7575 98.0437 44.4337 94.3789 37.5374 92.3173C25.37 88.628 9.93771 81.1843 10.7412 66.8509C11.6452 50.65 26.6772 46.1363 32.2875 32.2407C35.7354 23.7076 37.6615 14.9253 34.4903 7.09086" stroke="#008080" stroke-linecap="round" stroke-linejoin="round" stroke-dasharray="3 3"/>
<path d="M33.0019 4.08711C32.4208 3.11987 31.7686 2.19709 31.0509 1.32639" stroke="#008080" stroke-linecap="round" stroke-linejoin="round" stroke-dasharray="1 1"/>
</svg>
