<svg width="338" height="324" viewBox="0 0 338 324" fill="none" xmlns="http://www.w3.org/2000/svg">
<path d="M249.153 208.317L309.556 283.593L241.537 171.474L249.153 208.317Z" fill="white" stroke="#00040A" stroke-linecap="round" stroke-linejoin="round"/>
<path d="M249.153 208.318L309.557 283.594L206.757 227.869L249.153 208.318Z" fill="white" stroke="#00040A" stroke-linecap="round" stroke-linejoin="round"/>
<path d="M211.293 226.19L210.808 226L209.855 226.448L211.009 226.903L210.508 228.157L209.266 227.663L209.722 226.508L208.712 226.969L208.553 227.378L208.164 227.224L207.209 227.663L208.287 228.087L208.095 228.563L208.769 228.935L208.998 228.362L210.251 228.863L209.967 229.576L210.642 229.948L210.964 229.148L212.206 229.642L211.83 230.591L212.512 230.952L212.908 229.879L214.16 230.371L213.692 231.558L219.979 234.99L221.232 235.491L221.16 235.645L221.844 236.014L221.943 235.766L223.187 236.269L223.033 236.658L223.707 237.03L223.898 236.544L225.151 237.046L224.905 237.671L225.58 238.043L225.864 237.33L227.115 237.822L226.768 238.686L227.45 239.047L227.828 238.106L229.07 238.6L228.637 239.681L229.309 240.043L229.779 238.866L231.03 239.358L230.538 240.609L229.86 240.346L235.532 243.412L236.139 243.662L236.152 243.718L236.836 244.087L236.896 243.926L238.15 244.427L238.025 244.731L238.699 245.102L238.853 244.714L240.104 245.206L239.897 245.744L240.571 246.115L240.817 245.49L242.069 245.982L241.76 246.759L242.442 247.119L242.782 246.266L244.033 246.758L243.633 247.772L244.305 248.135L244.748 247.052L245.992 247.555L245.498 248.797L251.794 252.226L251.781 252.171L253.032 252.662L252.946 252.879L253.62 253.25L253.745 252.947L254.996 253.439L254.809 253.894L255.493 254.263L255.7 253.725L256.951 254.217L256.681 254.907L257.356 255.279L257.664 254.501L258.915 254.993L258.554 255.92L259.228 256.292L259.628 255.278L260.882 255.779L260.417 256.935L261.098 257.296L261.595 256.063L262.837 256.557L262.345 257.808L261.167 257.338L266.842 260.413L267.925 260.856L267.877 260.985L268.551 261.357L268.638 261.141L269.889 261.632L269.74 262L270.424 262.37L270.602 261.917L271.853 262.409L271.612 263.013L272.287 263.385L272.557 262.695L273.808 263.187L273.475 264.029L274.159 264.398L274.521 263.471L275.774 263.972L275.35 265.051L276.022 265.414L276.489 264.266L277.731 264.76L277.24 266.011L276.796 265.831L282.47 268.906L282.838 269.055L283.522 269.424L283.57 269.296L284.822 269.788L284.711 270.068L285.395 270.438L285.535 270.072L286.788 270.573L286.583 271.081L287.258 271.453L287.499 270.848L288.743 271.351L288.446 272.097L289.13 272.466L289.454 271.626L290.707 272.128L290.319 273.11L290.991 273.472L291.415 272.393L292.667 272.885L292.187 274.104L298.474 277.536L299.725 278.028L299.653 278.221L300.327 278.593L300.438 278.312L301.691 278.813L301.525 279.234L302.2 279.606L302.402 279.088L303.655 279.589L303.388 280.249L304.072 280.619L304.357 279.867L305.61 280.368L305.261 281.263L305.933 281.625L306.323 280.652L307.574 281.144L307.113 282.231L307.795 282.592L308.127 281.75L306.652 279.919L306.1 279.235L305.927 279.667L304.676 279.175L305.131 278.02L304.026 276.642L303.497 276.433L303.613 276.131L303.061 275.447L302.784 276.148L301.533 275.656L302.025 274.405L302.317 274.523L301.348 273.309L300.354 272.914L300.574 272.343L300.022 271.659L299.641 272.63L298.39 272.138L298.882 270.887L299.648 271.188L298.504 269.77L298.453 269.889L297.202 269.397L297.535 268.556L296.983 267.871L296.499 269.111L295.247 268.619L295.739 267.368L296.97 267.855L295.465 265.982L295.311 266.371L294.059 265.879L294.502 264.796L293.34 263.342L292.887 263.164L292.984 262.906L292.432 262.222L292.174 262.88L290.923 262.388L291.415 261.137L291.629 261.214L290.662 260.009L289.744 259.645L289.945 259.119L289.393 258.434L289.031 259.361L287.78 258.869L288.272 257.618L288.962 257.888L287.875 256.545L287.844 256.621L286.592 256.129L286.906 255.331L286.354 254.646L285.889 255.842L284.638 255.351L285.129 254.099L286.284 254.555L284.747 252.67L284.612 253.015L283.361 252.523L283.776 251.447L282.546 249.911L282.178 249.762L282.255 249.548L281.704 248.864L281.465 249.478L280.214 248.986L280.705 247.735L280.844 247.781L279.877 246.576L279.026 246.246L279.216 245.76L279.13 245.643C278.916 245.622 278.707 245.565 278.512 245.474L278.322 245.959L277.071 245.467L277.437 244.52L276.958 243.975L278.167 244.457L277.198 243.243L275.851 242.715L275.314 242.095L275.17 242.443L273.928 241.949L274.321 240.946L273.955 240.512L275.501 241.131L274.534 239.926L272.742 239.217L272.778 239.121L272.22 238.448L272.029 238.933L270.778 238.441L271.248 237.264L271.127 237.125L272.79 237.825L271.823 236.62L269.567 235.726L269.682 235.425L269.135 234.759L268.865 235.449L267.612 234.948L268.115 233.704L270.132 234.497L269.156 233.294L266.435 232.215L266.631 231.708L266.081 231.033L265.722 231.93L264.471 231.438L264.972 230.185L267.456 231.173L266.487 229.959L263.255 228.705L263.511 228.037L262.955 227.374L262.549 228.448L261.298 227.956L261.79 226.705L264.756 227.874L263.78 226.672L261.585 225.744L261.453 225.598L261.424 225.683L260.173 225.191L260.457 224.478L259.886 223.838L259.471 224.914L258.218 224.413L258.712 223.171L262.143 224.526L261.176 223.321L258.315 222.186L257.064 221.694L257.3 221.11L256.715 220.492L256.351 221.41L255.107 220.906L255.601 219.665L259.499 221.214L258.53 220L253.913 218.138L254.004 217.901L253.402 217.336L253.2 217.854L251.946 217.353L252.33 216.391C252.351 216.329 252.354 216.262 252.339 216.198C252.324 216.134 252.291 216.076 252.245 216.029L256.813 217.844L255.843 216.63L242.555 211.363L241.599 211.802L249.828 215.075C249.778 215.109 249.735 215.152 249.701 215.202L249.267 216.283L248.014 215.782L248.166 215.384L247.478 215.544L239.917 212.527L238.954 212.977L247.029 216.178L246.537 217.429L245.283 216.928L245.635 216.043C245.329 216.114 245.022 216.186 244.706 216.26L244.564 216.616L237.264 213.714L236.299 214.155L242.854 216.76C242.621 216.815 242.389 216.869 242.166 216.921L241.817 217.776L234.616 214.92L233.651 215.361L239.578 217.711L239.086 218.962L237.833 218.461L238.006 218.028L237.235 218.208L231.955 216.109L230.999 216.548L236.829 218.862L236.337 220.113L235.086 219.621L235.453 218.673C235.146 218.745 234.839 218.816 234.524 218.89L234.355 219.302L229.291 217.289L228.337 217.737L232.548 219.41C232.362 219.453 232.167 219.498 231.981 219.542L231.61 220.471L226.643 218.495L225.687 218.933L229.369 220.396L228.868 221.65L227.626 221.155L227.821 220.649L226.939 220.855L223.993 219.691L223.037 220.13L226.622 221.556L226.121 222.81L224.877 222.306L225.279 221.301L224.35 221.518L224.158 221.994L221.34 220.878L220.375 221.319L222.266 222.073C222.117 222.108 221.959 222.145 221.801 222.181L221.413 223.163L220.159 222.662L220.076 222.682L218.673 222.127L217.708 222.568L219.154 223.142L218.651 224.386L217.4 223.894L217.617 223.353C217.301 223.427 216.994 223.499 216.688 223.57L216.028 223.303L215.065 223.753L216.413 224.281L215.911 225.534L214.658 225.033L215.055 223.961C214.748 224.033 214.441 224.104 214.125 224.178L213.937 224.672L213.355 224.446L211.392 225.354L211.293 226.19ZM211.221 228.441L211.722 227.188L212.973 227.68L212.472 228.933L211.221 228.441ZM213.185 229.217L213.686 227.964L214.93 228.467L214.436 229.709L213.185 229.217ZM289.789 268.697L288.538 268.205L289.039 266.952L290.29 267.444L289.789 268.697ZM291.003 267.728L292.256 268.229L291.753 269.473L290.502 268.982L291.003 267.728ZM279.584 260.105L278.331 259.604L278.825 258.362L280.076 258.854L279.584 260.105ZM280.789 259.138L282.04 259.63L281.539 260.884L280.286 260.382L280.789 259.138ZM277.62 259.329L276.367 258.828L276.868 257.575L278.112 258.078L277.62 259.329ZM222.314 229.125L223.565 229.617L223.075 230.878L221.822 230.377L222.314 229.125ZM221.109 230.092L219.858 229.6L220.359 228.347L221.61 228.839L221.109 230.092ZM269.371 251.516L268.119 251.024L268.621 249.77L269.816 250.275L269.371 251.516ZM270.575 250.549L271.829 251.05L271.335 252.292L270.084 251.8L270.575 250.549ZM267.407 250.739L266.155 250.247L266.656 248.994L267.908 249.486L267.407 250.739ZM260.345 245.666L259.091 245.165L259.583 243.914L260.837 244.415L260.345 245.666ZM261.55 244.699L262.801 245.191L262.3 246.444L261.046 245.943L261.55 244.699ZM258.381 244.89L257.127 244.389L257.628 243.135L258.872 243.639L258.381 244.89ZM257.906 242.434L258.405 241.171L259.658 241.672L259.157 242.926L257.906 242.434ZM257.202 242.147L255.949 241.646L256.443 240.404L257.694 240.896L257.202 242.147ZM255.236 241.362L253.984 240.87L254.476 239.619L255.73 240.12L255.236 241.362ZM248.174 236.289L246.923 235.797L247.424 234.544L248.675 235.035L248.174 236.289ZM249.388 235.32L250.63 235.814L250.138 237.065L248.887 236.573L249.388 235.32ZM246.219 235.51L244.966 235.009L245.46 233.767L246.711 234.259L246.219 235.51ZM245.744 233.054L246.236 231.803L247.489 232.304L246.995 233.546L245.744 233.054ZM245.031 232.77L243.78 232.278L244.281 231.025L245.532 231.517L245.031 232.77ZM243.027 232.033L241.785 231.539L242.277 230.287L243.528 230.779L243.027 232.033ZM240.311 229.502L241.564 230.003L241.072 231.254L239.819 230.753L240.311 229.502ZM239.108 230.478L237.855 229.977L238.356 228.724L239.609 229.225L239.108 230.478ZM242.561 229.574L243.053 228.323L244.304 228.815L243.812 230.066L242.561 229.574ZM241.848 229.29L240.597 228.798L241.098 227.545L242.34 228.039L241.848 229.29ZM239.884 228.514L238.631 228.013L239.134 226.769L240.385 227.261L239.884 228.514ZM237.142 229.693L235.9 229.199L236.392 227.947L237.643 228.439L237.142 229.693ZM234.401 230.881L233.157 230.377L233.651 229.135L234.903 229.627L234.401 230.881ZM235.615 229.911L236.867 230.403L236.366 231.657L235.114 231.165L235.615 229.911ZM237.58 230.688L238.822 231.182L238.33 232.433L237.078 231.941L237.58 230.688ZM239.534 231.466L240.788 231.967L240.296 233.218L239.043 232.717L239.534 231.466ZM241.499 232.242L242.752 232.743L242.251 233.997L240.997 233.496L241.499 232.242ZM243.463 233.018L244.707 233.522L244.215 234.773L242.962 234.272L243.463 233.018ZM243.928 235.477L243.439 236.737L242.185 236.236L242.677 234.985L243.928 235.477ZM244.641 235.761L245.895 236.262L245.391 237.506L244.15 237.012L244.641 235.761ZM246.608 236.546L247.859 237.038L247.358 238.292L246.104 237.79L246.608 236.546ZM248.563 237.325L249.814 237.817L249.322 239.068L248.071 238.576L248.563 237.325ZM250.527 238.101L251.778 238.593L251.277 239.846L250.035 239.352L250.527 238.101ZM252.454 238.846L253.708 239.348L253.204 240.592L251.953 240.1L252.454 238.846ZM254.693 238.912L255.197 237.668L256.439 238.162L255.947 239.413L254.693 238.912ZM253.983 238.637L252.729 238.136L253.23 236.882L254.484 237.383L253.983 238.637ZM252.026 237.849L250.774 237.357L251.266 236.106L252.52 236.607L252.026 237.849ZM251.551 235.393L252.054 234.149L253.296 234.643L252.804 235.894L251.551 235.393ZM250.84 235.118L249.587 234.617L250.088 233.364L251.341 233.865L250.84 235.118ZM248.874 234.333L247.632 233.839L248.124 232.587L249.377 233.089L248.874 234.333ZM248.408 231.874L248.9 230.623L250.153 231.124L249.661 232.376L248.408 231.874ZM247.697 231.599L246.444 231.098L246.945 229.845L248.189 230.348L247.697 231.599ZM245.731 230.814L244.48 230.322L244.981 229.069L246.234 229.57L245.731 230.814ZM245.265 228.356L245.759 227.114L247.01 227.606L246.509 228.859L245.265 228.356ZM244.554 228.081L243.301 227.58L243.793 226.328L245.046 226.83L244.554 228.081ZM242.588 227.295L241.337 226.803L241.838 225.55L243.089 226.042L242.588 227.295ZM240.624 226.519L239.382 226.025L239.874 224.774L241.125 225.266L240.624 226.519ZM237.893 227.705L236.639 227.204L237.131 225.953L238.385 226.454L237.893 227.705ZM235.15 228.884L233.899 228.392L234.391 227.14L235.642 227.632L235.15 228.884ZM232.41 230.071L231.157 229.57L231.649 228.319L232.902 228.82L232.41 230.071ZM230.444 229.286L229.193 228.794L229.694 227.541L230.947 228.042L230.444 229.286ZM227.703 230.474L226.489 230.013L226.992 228.769L228.243 229.261L227.703 230.474ZM228.917 229.505L230.159 229.999L229.668 231.25L228.416 230.758L228.917 229.505ZM230.872 230.283L232.126 230.784L231.632 232.026L230.38 231.534L230.872 230.283ZM232.836 231.059L234.09 231.561L233.589 232.814L232.345 232.311L232.836 231.059ZM234.803 231.845L236.054 232.337L235.553 233.59L234.299 233.089L234.803 231.845ZM236.758 232.623L238.009 233.115L237.517 234.366L236.266 233.875L236.758 232.623ZM238.722 233.399L239.973 233.891L239.472 235.145L238.23 234.651L238.722 233.399ZM240.686 234.176L241.939 234.677L241.436 235.921L240.185 235.429L240.686 234.176ZM241.152 236.634L240.66 237.885L239.409 237.393L239.91 236.14L241.152 236.634ZM241.865 236.918L243.116 237.41L242.615 238.663L241.373 238.169L241.865 236.918ZM243.863 237.716L245.114 238.208L244.613 239.461L243.362 238.969L243.863 237.716ZM245.827 238.492L247.071 238.995L246.577 240.237L245.326 239.745L245.827 238.492ZM247.782 239.27L249.035 239.771L248.544 241.023L247.29 240.521L247.782 239.27ZM249.748 240.056L251 240.548L250.498 241.801L249.247 241.309L249.748 240.056ZM251.712 240.832L252.954 241.326L252.462 242.577L251.209 242.076L251.712 240.832ZM253.667 241.61L254.918 242.102L254.427 243.353L253.175 242.861L253.667 241.61ZM255.631 242.387L256.885 242.888L256.381 244.132L255.14 243.638L255.631 242.387ZM256.106 244.842L255.605 246.096L254.354 245.604L254.855 244.351L256.106 244.842ZM256.819 245.127L258.061 245.621L257.569 246.872L256.318 246.38L256.819 245.127ZM258.774 245.905L260.028 246.406L259.534 247.648L258.295 247.085L258.774 245.905ZM260.738 246.681L261.992 247.182L261.491 248.436L260.237 247.935L260.738 246.681ZM262.695 247.469L263.947 247.961L263.455 249.212L262.201 248.711L262.695 247.469ZM264.659 248.245L265.911 248.737L265.419 249.988L264.168 249.496L264.659 248.245ZM266.908 248.308L267.4 247.057L268.653 247.558L268.152 248.812L266.908 248.308ZM266.195 248.024L264.944 247.532L265.436 246.281L266.687 246.773L266.195 248.024ZM264.206 247.224L262.955 246.733L263.446 245.481L264.698 245.973L264.206 247.224ZM263.731 244.768L264.232 243.515L265.485 244.016L264.982 245.26L263.731 244.768ZM263.018 244.484L261.776 243.99L262.268 242.739L263.519 243.231L263.018 244.484ZM261.063 243.706L259.812 243.214L260.304 241.963L261.555 242.455L261.063 243.706ZM260.588 241.25L261.089 239.996L262.343 240.497L261.839 241.742L260.588 241.25ZM259.875 240.965L258.624 240.474L259.125 239.22L260.376 239.712L259.875 240.965ZM257.92 240.187L256.667 239.686L257.161 238.444L258.412 238.936L257.92 240.187ZM257.445 237.731L257.937 236.48L259.19 236.981L258.696 238.223L257.445 237.731ZM256.732 237.447L255.481 236.955L255.982 235.701L257.233 236.193L256.732 237.447ZM254.777 236.668L253.526 236.176L254.018 234.925L255.269 235.417L254.777 236.668ZM254.302 234.212L254.794 232.961L256.045 233.453L255.554 234.704L254.302 234.212ZM253.589 233.928L252.338 233.436L252.839 232.183L254.091 232.675L253.589 233.928ZM251.625 233.152L250.381 232.649L250.875 231.407L252.127 231.898L251.625 233.152ZM251.16 230.694L251.651 229.442L252.905 229.944L252.411 231.186L251.16 230.694ZM250.447 230.409L249.196 229.917L249.697 228.664L250.939 229.158L250.447 230.409ZM248.483 229.633L247.231 229.141L247.733 227.888L248.984 228.38L248.483 229.633ZM248.008 227.177L248.509 225.924L249.76 226.416L249.259 227.669L248.008 227.177ZM247.304 226.891L246.053 226.399L246.545 225.148L247.796 225.639L247.304 226.891ZM245.34 226.114L244.086 225.613L244.59 224.369L245.832 224.863L245.34 226.114ZM244.865 223.659L245.366 222.405L246.617 222.897L246.116 224.15L244.865 223.659ZM243.376 225.338L242.122 224.837L242.623 223.584L243.877 224.085L243.376 225.338ZM241.442 224.565L240.19 224.073L240.682 222.822L241.936 223.323L241.442 224.565ZM238.701 225.753L237.45 225.261L237.942 224.01L239.193 224.502L238.701 225.753ZM235.959 226.931L234.708 226.44L235.209 225.186L236.453 225.69L235.959 226.931ZM233.218 228.119L231.967 227.628L232.468 226.374L233.72 226.866L233.218 228.119ZM231.254 227.343L230.01 226.84L230.504 225.598L231.755 226.09L231.254 227.343ZM228.512 228.522L227.261 228.03L227.762 226.777L229.013 227.269L228.512 228.522ZM226.273 228.456L225.781 229.708L224.527 229.207L225.021 227.965L226.273 228.456ZM224.241 229.91L225.494 230.411L224.991 231.655L223.749 231.161L224.241 229.91ZM226.205 230.686L227.449 231.19L226.957 232.441L225.704 231.94L226.205 230.686ZM228.162 231.474L229.413 231.966L228.921 233.217L227.668 232.716L228.162 231.474ZM230.126 232.25L231.377 232.742L230.876 233.995L229.634 233.501L230.126 232.25ZM232.09 233.026L233.342 233.518L232.84 234.772L231.589 234.28L232.09 233.026ZM234.045 233.805L235.299 234.306L234.804 235.548L233.553 235.056L234.045 233.805ZM236.009 234.581L237.263 235.082L236.771 236.333L235.517 235.832L236.009 234.581ZM237.973 235.357L239.227 235.858L238.726 237.112L237.474 236.62L237.973 235.357ZM238.451 237.822L237.949 239.076L236.696 238.575L237.197 237.321L238.451 237.822ZM239.152 238.1L240.405 238.601L239.914 239.852L238.66 239.351L239.152 238.1ZM241.118 238.885L242.37 239.377L241.868 240.63L240.615 240.129L241.118 238.885ZM243.083 239.661L244.334 240.153L243.833 241.407L242.579 240.905L243.083 239.661ZM245.037 240.44L246.289 240.931L245.797 242.183L244.545 241.691L245.037 240.44ZM247.001 241.216L248.255 241.717L247.752 242.961L246.51 242.467L247.001 241.216ZM248.966 241.992L250.219 242.493L249.716 243.737L248.464 243.245L248.966 241.992ZM250.92 242.77L252.174 243.272L251.682 244.523L250.429 244.022L250.92 242.77ZM252.885 243.547L254.138 244.048L253.637 245.301L252.395 244.807L252.885 243.547ZM253.362 246.012L252.861 247.265L251.607 246.764L252.108 245.511L253.362 246.012ZM254.073 246.287L255.291 246.806L254.799 248.057L253.546 247.556L254.073 246.287ZM256.03 247.075L257.281 247.566L256.789 248.818L255.536 248.316L256.03 247.075ZM257.994 247.851L259.245 248.343L258.744 249.596L257.493 249.104L257.994 247.851ZM259.958 248.627L261.211 249.128L260.708 250.372L259.457 249.88L259.958 248.627ZM261.913 249.405L263.166 249.906L262.674 251.158L261.421 250.656L261.913 249.405ZM263.877 250.181L265.13 250.683L264.629 251.936L263.385 251.433L263.877 250.181ZM265.843 250.967L267.085 251.461L266.593 252.712L265.365 252.195L265.843 250.967ZM267.798 251.745L269.049 252.237L268.557 253.488L267.306 252.996L267.798 251.745ZM269.762 252.522L271.013 253.013L270.512 254.267L269.261 253.775L269.762 252.522ZM272.476 255.043L271.225 254.551L271.726 253.298L272.98 253.799L272.476 255.043ZM273.681 254.076L274.934 254.577L274.443 255.828L273.189 255.327L273.681 254.076ZM270.237 254.978L269.736 256.231L268.483 255.73L268.986 254.486L270.237 254.978ZM270.95 255.262L272.192 255.756L271.7 257.007L270.449 256.515L270.95 255.262ZM272.905 256.04L274.156 256.532L273.664 257.783L272.413 257.291L272.905 256.04ZM274.869 256.816L276.122 257.318L275.621 258.571L274.368 258.07L274.869 256.816ZM277.11 256.891L277.611 255.638L278.863 256.13L278.362 257.383L277.11 256.891ZM276.397 256.607L275.153 256.103L275.645 254.852L276.899 255.353L276.397 256.607ZM275.932 254.149L276.424 252.897L277.675 253.389L277.183 254.64L275.932 254.149ZM275.219 253.864L273.965 253.363L274.469 252.119L275.711 252.613L275.219 253.864ZM273.255 253.088L272.001 252.587L272.502 251.334L273.756 251.835L273.255 253.088ZM272.789 250.63L273.281 249.379L274.532 249.871L274.031 251.124L272.789 250.63ZM272.076 250.346L270.823 249.844L271.317 248.603L272.568 249.094L272.076 250.346ZM270.112 249.569L268.858 249.068L269.36 247.815L270.604 248.318L270.112 249.569ZM269.637 247.113L270.138 245.86L271.389 246.352L270.888 247.605L269.637 247.113ZM268.933 246.827L267.68 246.326L268.172 245.075L269.425 245.576L268.933 246.827ZM266.967 246.041L265.714 245.54L266.205 244.289L267.459 244.79L266.967 246.041ZM266.49 243.576L266.993 242.332L268.235 242.826L267.743 244.077L266.49 243.576ZM265.779 243.301L264.526 242.8L265.027 241.547L266.28 242.048L265.779 243.301ZM263.824 242.523L262.571 242.022L263.063 240.77L264.316 241.272L263.824 242.523ZM263.349 240.067L263.839 238.806L265.092 239.307L264.6 240.559L263.349 240.067ZM262.636 239.782L261.383 239.281L261.884 238.028L263.137 238.529L262.636 239.782ZM260.67 238.997L259.428 238.503L259.92 237.252L261.173 237.753L260.67 238.997ZM260.204 236.539L260.698 235.297L261.949 235.789L261.457 237.04L260.204 236.539ZM259.493 236.264L258.24 235.763L258.741 234.509L259.985 235.013L259.493 236.264ZM257.552 235.502L256.301 235.01L256.802 233.757L258.055 234.258L257.552 235.502ZM257.086 233.044L257.58 231.802L258.76 232.281L258.259 233.534L257.086 233.044ZM256.376 232.769L255.122 232.267L255.614 231.016L256.868 231.517L256.376 232.769ZM254.409 231.983L253.158 231.491L253.659 230.238L254.913 230.739L254.409 231.983ZM253.946 229.534L254.438 228.283L255.689 228.775L255.188 230.028L253.946 229.534ZM253.233 229.25L251.98 228.749L252.471 227.498L253.725 227.999L253.233 229.25ZM251.267 228.464L250.015 227.973L250.517 226.719L251.77 227.22L251.267 228.464ZM250.792 226.008L251.295 224.764L252.546 225.256L252.045 226.51L250.792 226.008ZM250.09 225.731L248.837 225.23L249.329 223.979L250.582 224.48L250.09 225.731ZM248.11 224.969L246.858 224.477L247.359 223.223L248.601 223.717L248.11 224.969ZM247.635 222.513L248.136 221.259L249.38 221.763L248.888 223.014L247.635 222.513ZM246.922 222.228L245.68 221.734L246.172 220.483L247.425 220.984L246.922 222.228ZM244.181 223.416L242.939 222.922L243.431 221.671L244.682 222.163L244.181 223.416ZM242.226 222.638L240.973 222.137L241.467 220.895L242.718 221.387L242.226 222.638ZM239.486 223.826L238.233 223.325L238.734 222.071L239.976 222.565L239.486 223.826ZM236.744 225.005L235.49 224.503L235.994 223.259L237.235 223.753L236.744 225.005ZM234.003 226.192L232.714 225.621L233.215 224.368L234.466 224.86L234.003 226.192ZM232.037 225.407L230.795 224.913L231.287 223.662L232.54 224.163L232.037 225.407ZM229.306 226.593L228.053 226.092L228.544 224.84L229.798 225.342L229.306 226.593ZM227.055 226.52L226.563 227.771L225.312 227.28L225.804 226.028L227.055 226.52ZM223.821 228.95L222.57 228.458L223.071 227.205L224.315 227.708L223.821 228.95ZM221.852 228.155L220.601 227.663L221.131 226.364L222.384 226.865L221.852 228.155ZM219.112 229.343L217.868 228.84L218.362 227.598L219.613 228.09L219.112 229.343ZM218.837 230.054L218.336 231.307L217.083 230.806L217.584 229.553L218.837 230.054ZM219.55 230.338L220.792 230.832L220.3 232.084L219.047 231.582L219.55 230.338ZM221.505 231.117L222.756 231.609L222.255 232.862L221.013 232.368L221.505 231.117ZM223.469 231.893L224.72 232.385L224.219 233.638L222.968 233.146L223.469 231.893ZM225.433 232.669L226.675 233.163L226.183 234.414L224.932 233.922L225.433 232.669ZM227.388 233.447L228.641 233.949L228.15 235.2L226.896 234.699L227.388 233.447ZM229.352 234.224L230.605 234.725L230.104 235.978L228.851 235.477L229.352 234.224ZM231.318 235.009L232.56 235.503L232.069 236.754L230.817 236.262L231.318 235.009ZM233.273 235.787L234.524 236.279L234.033 237.53L232.781 237.039L233.273 235.787ZM235.237 236.564L236.491 237.065L235.987 238.309L234.746 237.815L235.237 236.564ZM235.712 239.02L235.211 240.273L233.958 239.772L234.461 238.528L235.712 239.02ZM236.416 239.306L237.667 239.798L237.175 241.049L235.924 240.557L236.416 239.306ZM238.38 240.082L239.631 240.574L239.14 241.825L237.888 241.334L238.38 240.082ZM240.344 240.859L241.598 241.36L241.094 242.604L239.843 242.112L240.344 240.859ZM242.321 241.602L243.565 242.106L243.073 243.357L241.819 242.856L242.321 241.602ZM244.278 242.39L245.529 242.882L245.037 244.133L243.77 243.616L244.278 242.39ZM246.242 243.166L247.493 243.658L246.992 244.912L245.741 244.42L246.242 243.166ZM248.206 243.943L249.448 244.437L248.956 245.688L247.705 245.196L248.206 243.943ZM250.161 244.721L251.414 245.222L250.92 246.464L249.669 245.972L250.161 244.721ZM250.636 247.177L250.135 248.43L248.883 247.938L249.384 246.685L250.636 247.177ZM251.349 247.461L252.591 247.955L252.099 249.206L250.847 248.715L251.349 247.461ZM253.303 248.24L254.557 248.741L254.063 249.983L252.812 249.491L253.303 248.24ZM255.268 249.016L256.521 249.517L256.02 250.77L254.776 250.267L255.268 249.016ZM257.234 249.801L258.485 250.293L257.984 251.546L256.731 251.045L257.234 249.801ZM259.198 250.577L260.44 251.071L259.948 252.323L258.697 251.831L259.198 250.577ZM261.153 251.356L262.404 251.848L261.912 253.099L260.661 252.607L261.153 251.356ZM263.117 252.132L264.368 252.624L263.869 253.887L262.616 253.385L263.117 252.132ZM265.072 252.91L266.325 253.411L265.831 254.653L264.58 254.161L265.072 252.91ZM267.036 253.687L268.289 254.188L267.798 255.439L266.544 254.938L267.036 253.687ZM267.511 256.143L267.01 257.396L265.759 256.904L266.26 255.651L267.511 256.143ZM268.224 256.427L269.468 256.93L268.976 258.181L267.723 257.68L268.224 256.427ZM270.179 257.205L271.432 257.706L270.94 258.958L269.687 258.456L270.179 257.205ZM272.145 257.991L273.396 258.483L272.895 259.736L271.653 259.242L272.145 257.991ZM274.109 258.767L275.351 259.261L274.859 260.512L273.608 260.02L274.109 258.767ZM276.064 259.545L277.317 260.046L276.823 261.288L275.572 260.796L276.064 259.545ZM278.028 260.321L279.282 260.823L278.778 262.067L277.536 261.573L278.028 260.321ZM279.992 261.098L281.246 261.599L280.745 262.852L279.491 262.351L279.992 261.098ZM281.947 261.876L283.201 262.377L282.709 263.628L281.455 263.127L281.947 261.876ZM283.913 262.661L285.165 263.153L284.664 264.407L283.419 263.903L283.913 262.661ZM282.424 264.341L281.933 265.592L280.679 265.091L281.171 263.84L282.424 264.341ZM283.135 264.616L284.388 265.117L283.887 266.371L282.634 265.87L283.135 264.616ZM285.101 265.402L286.343 265.896L285.851 267.147L284.598 266.646L285.101 265.402ZM287.056 266.18L288.307 266.672L287.816 267.923L286.564 267.431L287.056 266.18ZM289.305 266.243L289.797 264.992L291.05 265.493L290.549 266.747L289.305 266.243ZM288.592 265.959L287.341 265.467L287.832 264.216L289.084 264.708L288.592 265.959ZM286.628 265.183L285.376 264.691L285.878 263.438L287.129 263.929L286.628 265.183ZM286.153 262.727L286.654 261.473L287.907 261.975L287.404 263.219L286.153 262.727ZM285.449 262.44L284.198 261.949L284.69 260.697L285.941 261.189L285.449 262.44ZM283.485 261.664L282.234 261.172L282.735 259.919L283.977 260.413L283.485 261.664ZM283.01 259.208L283.511 257.955L284.762 258.447L284.261 259.7L283.01 259.208ZM282.297 258.924L281.055 258.43L281.547 257.179L282.8 257.68L282.297 258.924ZM280.342 258.145L279.091 257.654L279.583 256.402L280.834 256.894L280.342 258.145ZM279.867 255.689L280.368 254.436L281.612 254.939L281.118 256.181L279.867 255.689ZM279.154 255.405L277.912 254.911L278.404 253.66L279.655 254.152L279.154 255.405ZM278.688 252.947L279.18 251.696L280.434 252.197L279.933 253.45L278.688 252.947ZM277.975 252.663L276.724 252.171L277.225 250.917L278.47 251.421L277.975 252.663ZM276.011 251.886L274.76 251.395L275.261 250.141L276.513 250.633L276.011 251.886ZM275.536 249.43L276.038 248.177L277.291 248.678L276.788 249.922L275.536 249.43ZM274.833 249.144L273.581 248.652L274.073 247.401L275.325 247.893L274.833 249.144ZM272.869 248.368L271.617 247.876L272.119 246.623L273.36 247.117L272.869 248.368ZM272.394 245.912L272.895 244.658L274.148 245.16L273.647 246.413L272.394 245.912ZM271.681 245.627L270.439 245.133L270.931 243.882L272.182 244.374L271.681 245.627ZM269.726 244.849L268.475 244.357L268.966 243.106L270.218 243.598L269.726 244.849ZM269.251 242.393L269.752 241.14L270.996 241.643L270.502 242.885L269.251 242.393ZM268.538 242.109L267.287 241.617L267.788 240.364L269.039 240.855L268.538 242.109ZM266.583 241.33L265.332 240.839L265.824 239.587L267.075 240.079L266.583 241.33ZM266.108 238.874L266.6 237.623L267.853 238.124L267.359 239.366L266.108 238.874ZM265.395 238.59L264.144 238.098L264.645 236.845L265.887 237.339L265.395 238.59ZM263.431 237.814L262.187 237.311L262.681 236.069L263.932 236.561L263.431 237.814ZM262.965 235.356L263.457 234.105L264.71 234.606L264.216 235.848L262.965 235.356ZM262.252 235.071L261.001 234.58L261.502 233.326L262.744 233.82L262.252 235.071ZM260.288 234.295L259.035 233.794L259.538 232.55L260.789 233.042L260.288 234.295ZM259.822 231.837L260.314 230.586L261.565 231.078L261.064 232.331L259.822 231.837ZM259.109 231.553L257.858 231.061L258.35 229.81L259.601 230.302L259.109 231.553ZM257.145 230.777L255.892 230.275L256.384 229.024L257.637 229.525L257.145 230.777ZM256.67 228.321L257.171 227.067L258.425 227.568L257.922 228.812L256.67 228.321ZM255.967 228.034L254.715 227.542L255.207 226.291L256.459 226.783L255.967 228.034ZM254.003 227.258L252.751 226.766L253.243 225.515L254.494 226.007L254.003 227.258ZM253.528 224.802L254.029 223.549L255.28 224.04L254.779 225.294L253.528 224.802ZM252.815 224.518L251.563 224.026L252.065 222.772L253.316 223.264L252.815 224.518ZM250.86 223.739L249.606 223.238L250.1 221.996L251.352 222.488L250.86 223.739ZM250.385 221.283L250.877 220.032L252.128 220.524L251.636 221.775L250.385 221.283ZM249.672 220.999L248.421 220.507L248.922 219.254L250.173 219.745L249.672 220.999ZM247.717 220.221L246.464 219.719L246.958 218.477L248.209 218.969L247.717 220.221ZM244.977 221.408L243.723 220.907L244.215 219.656L245.466 220.148L244.977 221.408ZM243.01 220.623L241.759 220.131L242.26 218.878L243.502 219.372L243.01 220.623ZM240.27 221.811L239.017 221.31L239.518 220.056L240.771 220.558L240.27 221.811ZM237.528 222.99L236.276 222.498L236.777 221.244L238.029 221.736L237.528 222.99ZM234.787 224.178L233.543 223.674L234.035 222.423L235.288 222.924L234.787 224.178ZM232.832 223.399L231.579 222.898L232.071 221.647L233.324 222.148L232.832 223.399ZM230.09 224.578L228.837 224.077L229.331 222.835L230.582 223.327L230.09 224.578ZM227.841 224.515L227.347 225.756L226.096 225.265L226.597 224.011L227.841 224.515ZM224.607 226.944L223.354 226.443L223.857 225.199L225.108 225.691L224.607 226.944ZM222.643 226.168L221.399 225.665L221.891 224.414L223.144 224.915L222.643 226.168ZM219.91 227.345L218.659 226.853L219.15 225.602L220.404 226.103L219.91 227.345ZM217.169 228.533L215.916 228.032L216.41 226.79L217.661 227.281L217.169 228.533ZM215.632 228.744L216.885 229.246L216.391 230.488L215.14 229.996L215.632 228.744ZM214.368 231.978L214.86 230.727L216.111 231.219L215.61 232.472L214.368 231.978ZM216.323 232.757L216.824 231.503L218.075 231.995L217.576 233.258L216.323 232.757ZM218.287 233.533L218.779 232.282L220.032 232.783L219.538 234.025L218.287 233.533ZM220.251 234.309L220.743 233.058L221.996 233.559L221.495 234.812L220.251 234.309ZM222.206 235.087L222.709 233.843L223.96 234.335L223.459 235.589L222.206 235.087ZM224.17 235.864L224.664 234.622L225.915 235.114L225.423 236.365L224.17 235.864ZM226.136 236.649L226.628 235.398L227.879 235.89L227.378 237.143L226.136 236.649ZM228.091 237.428L228.592 236.174L229.836 236.677L229.342 237.919L228.091 237.428ZM230.055 238.204L230.547 236.952L231.801 237.454L231.309 238.705L230.055 238.204ZM232.511 237.729L233.765 238.23L233.264 239.483L232.019 238.98L232.511 237.729ZM231.238 240.965L231.739 239.711L232.993 240.213L232.492 241.466L231.238 240.965ZM233.202 241.741L233.704 240.488L234.948 240.991L234.454 242.233L233.202 241.741ZM235.167 242.517L235.661 241.275L236.912 241.767L236.42 243.018L235.167 242.517ZM237.133 243.303L237.625 242.051L238.876 242.543L238.375 243.797L237.133 243.303ZM239.088 244.081L239.589 242.828L240.84 243.319L240.339 244.573L239.088 244.081ZM241.052 244.857L241.544 243.606L242.797 244.107L242.303 245.349L241.052 244.857ZM243.007 245.636L243.508 244.382L244.761 244.883L244.258 246.127L243.007 245.636ZM244.971 246.412L245.474 245.168L246.725 245.659L246.224 246.913L244.971 246.412ZM247.427 245.937L248.68 246.438L248.188 247.689L246.935 247.188L247.427 245.937ZM246.163 249.171L246.655 247.919L247.908 248.421L247.417 249.672L246.163 249.171ZM248.118 249.949L248.619 248.696L249.873 249.197L249.371 250.45L248.118 249.949ZM250.082 250.725L250.585 249.481L251.827 249.975L251.336 251.226L250.082 250.725ZM252.048 251.511L252.54 250.259L253.791 250.751L253.3 252.003L252.048 251.511ZM254.003 252.289L254.504 251.036L255.758 251.537L255.254 252.781L254.003 252.289ZM255.967 253.065L256.469 251.812L257.713 252.315L257.221 253.566L255.967 253.065ZM257.932 253.841L258.423 252.59L259.677 253.091L259.185 254.343L257.932 253.841ZM259.886 254.62L260.388 253.366L261.641 253.867L261.14 255.121L259.886 254.62ZM261.853 255.405L262.354 254.152L263.596 254.646L263.104 255.897L261.853 255.405ZM264.309 254.93L265.56 255.422L265.068 256.673L263.817 256.181L264.309 254.93ZM263.045 258.164L263.539 256.922L264.79 257.414L264.298 258.665L263.045 258.164ZM265 258.942L265.503 257.698L266.754 258.19L266.253 259.444L265 258.942ZM266.966 259.728L267.458 258.477L268.709 258.969L268.217 260.22L266.966 259.728ZM268.93 260.504L269.422 259.253L270.675 259.754L270.181 260.996L268.93 260.504ZM270.885 261.282L271.386 260.029L272.64 260.53L272.138 261.784L270.885 261.282ZM272.849 262.059L273.341 260.808L274.594 261.309L274.103 262.56L272.849 262.059ZM274.813 262.835L275.307 261.593L276.559 262.085L276.067 263.336L274.813 262.835ZM276.77 263.623L277.272 262.369L278.523 262.861L278.022 264.114L276.77 263.623ZM279.236 263.145L280.48 263.649L279.986 264.891L278.735 264.399L279.236 263.145ZM277.963 266.381L278.455 265.13L279.706 265.622L279.214 266.873L277.963 266.381ZM279.927 267.158L280.419 265.906L281.67 266.398L281.169 267.652L279.927 267.158ZM281.882 267.936L282.383 266.683L283.634 267.174L283.133 268.428L281.882 267.936ZM283.846 268.712L284.338 267.461L285.591 267.962L285.099 269.213L283.846 268.712ZM285.81 269.488L286.302 268.237L287.555 268.738L287.054 269.992L285.81 269.488ZM287.767 270.276L288.266 269.013L289.519 269.515L289.018 270.768L287.767 270.276ZM289.731 271.052L290.223 269.801L291.474 270.293L290.982 271.544L289.731 271.052ZM291.695 271.828L292.187 270.577L293.438 271.069L292.937 272.322L291.695 271.828ZM294.151 271.353L295.397 271.739L294.894 272.983L293.643 272.491L294.151 271.353ZM292.878 274.589L293.379 273.336L294.631 273.828L294.129 275.081L292.878 274.589ZM294.842 275.366L295.334 274.114L296.585 274.606L296.093 275.858L294.842 275.366ZM296.797 276.144L297.298 274.891L298.552 275.392L298.051 276.645L296.797 276.144ZM304.435 277.723L303.934 278.976L302.692 278.482L303.184 277.231L304.435 277.723ZM302.461 276.821L301.969 278.072L300.716 277.571L301.21 276.329L302.461 276.821ZM300.003 277.287L298.752 276.795L299.225 275.548L300.469 276.052L300.003 277.287ZM301.276 274.051L300.775 275.304L299.524 274.812L300.025 273.559L301.276 274.051ZM299.312 273.275L298.82 274.526L297.567 274.025L298.061 272.783L299.312 273.275ZM296.856 273.75L295.602 273.249L296.094 271.997L297.348 272.498L296.856 273.75ZM298.119 270.516L297.628 271.767L296.374 271.266L296.878 270.022L298.119 270.516ZM296.165 269.737L295.663 270.991L294.419 270.487L294.911 269.236L296.165 269.737ZM293.709 270.212L292.455 269.711L292.947 268.46L294.2 268.961L293.709 270.212ZM294.972 266.978L294.48 268.23L293.229 267.738L293.719 266.477L294.972 266.978ZM292.455 267.527L291.202 267.025L291.703 265.772L292.956 266.273L292.455 267.527ZM293.728 264.291L293.227 265.544L291.985 265.05L292.477 263.799L293.728 264.291ZM291.764 263.514L291.272 264.766L290.019 264.264L290.513 263.022L291.764 263.514ZM289.308 263.989L288.055 263.488L288.556 262.235L289.8 262.738L289.308 263.989ZM290.581 260.753L290.08 262.007L288.826 261.505L289.33 260.261L290.581 260.753ZM288.617 259.977L288.116 261.23L286.872 260.727L287.363 259.476L288.617 259.977ZM286.161 260.452L284.907 259.951L285.399 258.7L286.653 259.201L286.161 260.452ZM287.425 257.218L286.933 258.469L285.679 257.968L286.183 256.724L287.425 257.218ZM285.47 256.44L284.969 257.693L283.715 257.192L284.216 255.939L285.47 256.44ZM283.014 256.915L281.76 256.414L282.252 255.162L283.506 255.664L283.014 256.915ZM284.341 253.744L283.849 254.996L282.598 254.504L283.09 253.253L284.341 253.744ZM281.885 254.219L280.632 253.718L281.133 252.465L282.386 252.966L281.885 254.219ZM283.158 250.983L282.657 252.237L281.406 251.745L281.907 250.491L283.158 250.983ZM281.194 250.207L280.702 251.458L279.449 250.957L279.943 249.715L281.194 250.207ZM278.738 250.682L277.485 250.181L277.988 248.937L279.23 249.431L278.738 250.682ZM280.011 247.446L279.51 248.699L278.259 248.208L278.76 246.954L280.011 247.446ZM278.047 246.67L277.546 247.923L276.302 247.42L276.796 246.178L278.047 246.67ZM275.591 247.145L274.338 246.644L274.829 245.393L276.083 245.894L275.591 247.145ZM276.855 243.911L276.363 245.162L275.112 244.67L275.613 243.417L276.855 243.911ZM274.908 243.209L274.407 244.462L273.153 243.961L273.657 242.717L274.908 243.209ZM272.452 243.684L271.199 243.183L271.69 241.932L272.944 242.433L272.452 243.684ZM273.716 240.45L273.224 241.701L271.973 241.21L272.464 239.958L273.716 240.45ZM271.761 239.672L271.26 240.925L270.006 240.424L270.507 239.171L271.761 239.672ZM269.305 240.147L268.051 239.646L268.543 238.394L269.797 238.896L269.305 240.147ZM270.568 236.913L270.077 238.164L268.825 237.672L269.315 236.412L270.568 236.913ZM268.604 236.137L268.112 237.388L266.859 236.887L267.385 235.657L268.604 236.137ZM266.649 235.358L266.146 236.602L264.895 236.111L265.396 234.857L266.649 235.358ZM267.426 233.394L266.925 234.648L265.68 234.144L266.174 232.902L267.426 233.394ZM265.475 232.674L264.983 233.925L263.729 233.424L264.221 232.173L265.475 232.674ZM263.016 233.14L261.765 232.648L262.266 231.394L263.52 231.895L263.016 233.14ZM264.289 229.903L263.788 231.157L262.535 230.656L263.038 229.412L264.289 229.903ZM262.325 229.127L261.831 230.369L260.58 229.877L261.072 228.626L262.325 229.127ZM259.867 229.593L258.616 229.101L259.108 227.85L260.361 228.351L259.867 229.593ZM261.131 226.359L260.639 227.61L259.386 227.109L259.887 225.856L261.131 226.359ZM259.164 225.613L258.663 226.866L257.409 226.365L257.91 225.112L259.164 225.613ZM257.212 224.804L256.718 226.046L255.467 225.555L255.958 224.303L257.212 224.804ZM257.988 222.84L257.496 224.092L256.243 223.59L256.737 222.349L257.988 222.84ZM256.05 222.136L255.549 223.39L254.296 222.889L254.797 221.635L256.05 222.136ZM253.592 222.602L252.341 222.11L252.833 220.859L254.086 221.36L253.592 222.602ZM254.856 219.368L254.364 220.619L253.111 220.118L253.603 218.867L254.856 219.368ZM252.901 218.59L252.398 219.834L251.147 219.342L251.648 218.089L252.901 218.59ZM250.436 219.067L249.183 218.566L249.684 217.312L250.935 217.804L250.436 219.067ZM250.4 215.509C250.4 215.448 250.386 215.388 250.358 215.333L251.867 215.961C251.802 215.966 251.74 215.988 251.687 216.024C251.634 216.061 251.591 216.111 251.562 216.169L251.181 217.139L249.937 216.636L250.4 215.509ZM247.701 216.541L248.954 217.042L248.46 218.284L247.209 217.792L247.701 216.541ZM246.212 218.22L245.72 219.472L244.483 218.957L244.984 217.703L246.212 218.22ZM242.976 216.947L244.227 217.439L243.726 218.693L242.475 218.201L242.976 216.947ZM240.235 218.135L241.487 218.627L240.986 219.881L239.732 219.379L240.235 218.135ZM237.493 219.314L238.746 219.815L238.245 221.068L237.001 220.565L237.493 219.314ZM236.004 220.994L235.512 222.245L234.259 221.744L234.753 220.502L236.004 220.994ZM232.768 219.721L234.012 220.224L233.52 221.475L232.267 220.974L232.768 219.721ZM230.027 220.909L231.279 221.401L230.777 222.654L229.526 222.162L230.027 220.909ZM227.287 222.097L228.538 222.589L228.037 223.842L226.784 223.341L227.287 222.097ZM225.796 223.767L225.295 225.021L224.043 224.529L224.545 223.275L225.796 223.767ZM222.562 222.504L223.813 222.995L223.321 224.247L222.07 223.755L222.562 222.504ZM219.819 223.682L221.073 224.183L220.581 225.434L219.328 224.933L219.819 223.682ZM217.088 224.868L218.33 225.362L217.838 226.613L216.587 226.121L217.088 224.868ZM215.599 226.548L215.098 227.801L213.845 227.3L214.346 226.047L215.599 226.548ZM213.635 225.772L213.132 227.016L211.89 226.522L212.382 225.27L213.635 225.772Z" fill="#00040A"/>
<path d="M308.065 282.783L309.557 283.591L309.071 282.98L309.004 283.152L308.065 282.783Z" fill="#00040A"/>
<path d="M206.758 227.869L206.86 227.932L206.915 227.793L206.758 227.869Z" fill="#00040A"/>
<path d="M253.16 213.309L245.191 210.142L244.226 210.583L254.127 214.514L253.16 213.309Z" fill="#00040A"/>
<path d="M250.479 209.977L247.834 208.929L246.869 209.37L251.446 211.182L250.479 209.977Z" fill="#00040A"/>
<path d="M251.4 219.001L309.556 283.594L206.756 227.869L251.4 219.001Z" fill="white" stroke="#00040A" stroke-linecap="round" stroke-linejoin="round"/>
<path d="M245.569 220.165L256.27 224.418L255.119 223.139L246.945 219.893L245.569 220.165Z" fill="#00040A"/>
<path d="M242.093 220.849L259.174 227.631L258.024 226.352L243.47 220.577L242.093 220.849Z" fill="#00040A"/>
<path d="M238.684 221.526L262.016 230.788L260.856 229.511L240.07 221.252L238.684 221.526Z" fill="#00040A"/>
<path d="M235.211 222.217L264.914 234.01L263.761 232.721L236.588 221.945L235.211 222.217Z" fill="#00040A"/>
<path d="M231.402 222.979L268.089 237.541L266.939 236.261L232.779 222.707L231.402 222.979Z" fill="#00040A"/>
<path d="M227.58 223.735L271.275 241.081L270.122 239.792L228.966 223.461L227.58 223.735Z" fill="#00040A"/>
<path d="M223.771 224.497L274.46 244.61L273.3 243.333L225.157 224.223L223.771 224.497Z" fill="#00040A"/>
<path d="M219.959 225.248L277.635 248.139L276.484 246.859L221.336 224.975L219.959 225.248Z" fill="#00040A"/>
<path d="M216.147 226L280.822 251.677L279.671 250.397L217.524 225.728L216.147 226Z" fill="#00040A"/>
<path d="M212.328 226.763L283.997 255.207L282.846 253.927L213.714 226.488L212.328 226.763Z" fill="#00040A"/>
<path d="M208.517 227.517L287.181 258.737L286.03 257.458L209.903 227.243L208.517 227.517Z" fill="#00040A"/>
<path d="M215.158 232.422L290.359 262.276L289.208 260.996L209.495 229.354L215.158 232.422Z" fill="#00040A"/>
<path d="M230.802 240.9L293.542 265.804L292.391 264.524L225.139 237.832L230.802 240.9Z" fill="#00040A"/>
<path d="M246.45 249.389L296.73 269.342L295.57 268.065L240.785 246.311L246.45 249.389Z" fill="#00040A"/>
<path d="M262.094 257.869L299.903 272.875L298.752 271.595L256.428 254.792L262.094 257.869Z" fill="#00040A"/>
<path d="M277.74 266.348L303.091 276.413L301.929 275.126L272.074 263.271L277.74 266.348Z" fill="#00040A"/>
<path d="M293.383 274.826L306.265 279.942L305.114 278.663L287.72 271.758L293.383 274.826Z" fill="#00040A"/>
<path d="M309.04 283.313L309.45 283.472L308.299 282.193L303.366 280.238L309.04 283.313Z" fill="#00040A"/>
<path d="M251.401 219.001L309.557 283.594L214.697 267.487L251.401 219.001Z" fill="white" stroke="#00040A" stroke-linecap="round" stroke-linejoin="round"/>
<path d="M295.235 269.74L304.856 278.351L300.029 272.991L296.139 269.5C295.876 269.591 295.534 269.68 295.235 269.74Z" fill="#00040A"/>
<path d="M292.873 270.202L307.373 283.22L308.781 283.46L293.825 270.039L292.873 270.202Z" fill="#00040A"/>
<path d="M290.513 270.626L303.894 282.63L305.302 282.87L291.465 270.423C291.188 270.497 290.833 270.57 290.513 270.626Z" fill="#00040A"/>
<path d="M288.077 271.019L300.345 282.03L301.753 282.27L289.065 270.887C288.733 270.935 288.362 270.982 288.077 271.019Z" fill="#00040A"/>
<path d="M285.308 271.371L296.458 281.369L297.875 281.607L286.326 271.242C285.974 271.285 285.64 271.323 285.308 271.371Z" fill="#00040A"/>
<path d="M282.492 271.686L292.59 280.704L293.996 280.935L283.581 271.608C283.198 271.649 282.846 271.652 282.492 271.686Z" fill="#00040A"/>
<path d="M279.585 271.902L288.655 280.044L290.063 280.283L280.634 271.824C280.287 271.846 279.932 271.88 279.585 271.902Z" fill="#00040A"/>
<path d="M276.616 272.067L284.76 279.386L286.168 279.626L277.727 272.043C277.343 272.035 276.986 272.059 276.616 272.067Z" fill="#00040A"/>
<path d="M273.548 272.155L280.859 278.718L282.267 278.958L274.657 272.122C274.286 272.13 273.937 272.143 273.548 272.155Z" fill="#00040A"/>
<path d="M270.374 272.153L276.964 278.061L278.372 278.3L271.556 272.18C271.162 272.174 270.767 272.159 270.374 272.153Z" fill="#00040A"/>
<path d="M267.144 272.082L273.068 277.401L274.476 277.641L268.287 272.11C267.921 272.097 267.53 272.1 267.144 272.082Z" fill="#00040A"/>
<path d="M263.741 271.857L269.17 276.733L270.58 276.982L264.984 271.978L263.741 271.857Z" fill="#00040A"/>
<path d="M260.256 271.573L265.274 276.074L266.682 276.314L261.552 271.711L260.256 271.573Z" fill="#00040A"/>
<path d="M256.617 271.139L261.377 275.416L262.795 275.654L257.936 271.291C257.493 271.238 257.061 271.192 256.617 271.139Z" fill="#00040A"/>
<path d="M252.794 270.542L257.481 274.758L258.898 274.996L254.2 270.772C253.72 270.688 253.263 270.618 252.794 270.542Z" fill="#00040A"/>
<path d="M248.811 269.805L253.583 274.09L255 274.327L250.315 270.12C249.805 270.033 249.305 269.905 248.811 269.805Z" fill="#00040A"/>
<path d="M244.62 268.89L249.689 273.439L251.106 273.676L246.152 269.238C245.64 269.103 245.128 269.007 244.62 268.89Z" fill="#00040A"/>
<path d="M240.127 267.686L245.79 272.772L247.208 273.01L241.756 268.119L240.127 267.686Z" fill="#00040A"/>
<path d="M235.314 266.164L241.92 272.098L243.337 272.335L237.129 266.72C236.472 266.55 235.871 266.367 235.314 266.164Z" fill="#00040A"/>
<path d="M229.975 264.275L237.968 271.452L239.385 271.69L231.944 264.991C231.3 264.749 230.649 264.519 229.975 264.275Z" fill="#00040A"/>
<path d="M224.107 261.802L234.109 270.784L235.468 271.026L226.233 262.727C225.555 262.424 224.822 262.135 224.107 261.802Z" fill="#00040A"/>
<path d="M219.787 260.752L230.211 270.116L231.619 270.356L220.252 260.144L219.787 260.752Z" fill="#00040A"/>
<path d="M218.506 262.444L226.314 269.459L227.732 269.696L218.971 261.835L218.506 262.444Z" fill="#00040A"/>
<path d="M217.226 264.133L222.42 268.799L223.837 269.037L217.691 263.524L217.226 264.133Z" fill="#00040A"/>
<path d="M215.946 265.824L218.523 268.132L219.94 268.37L216.412 265.215L215.946 265.824Z" fill="#00040A"/>
<path d="M214.696 267.486L216.041 267.711L215.135 266.894L214.696 267.486Z" fill="#00040A"/>
<path d="M202.141 222.668C200.863 220.691 199.478 218.785 197.993 216.958" stroke="white" stroke-linecap="round" stroke-linejoin="round" stroke-dasharray="1 1"/>
<path d="M188.205 207.055C149.707 175.065 80.0109 182.859 78.9859 217.795C78.4343 236.69 99.6503 240.417 104.264 219.605C107.988 202.779 92.7075 195.133 78.319 190.831C52.9325 183.134 20.7342 167.603 22.4106 137.698C24.2968 103.896 55.6599 94.4781 67.3653 65.4859C74.5591 47.6823 78.5778 29.3587 71.9613 13.0126" stroke="white" stroke-linecap="round" stroke-linejoin="round" stroke-dasharray="3 3"/>
<path d="M68.8564 6.74434C67.6439 4.72627 66.2833 2.80097 64.7858 0.984299" stroke="white" stroke-linecap="round" stroke-linejoin="round" stroke-dasharray="1 1"/>
</svg>
