<svg width="297" height="221" viewBox="0 0 297 221" fill="none" xmlns="http://www.w3.org/2000/svg">
<path d="M109.421 185.212C107.993 178.156 106.901 171.1 106.901 164.044C106.901 157.324 107.069 150.604 108.581 143.884C110.093 137.08 113.537 130.948 122.525 130.948H123.449C125.633 131.032 133.109 131.452 134.957 132.124C137.561 132.964 139.325 135.232 139.325 137.668C139.325 141.196 136.301 143.884 132.437 143.884C131.513 143.884 130.589 143.8 129.749 143.632C128.825 143.548 128.069 143.38 127.145 143.296C125.801 143.128 124.205 143.128 122.777 143.128C122.693 143.128 122.693 143.212 122.693 143.296C121.769 145.06 121.181 147.832 120.929 150.688C120.593 153.292 120.509 155.98 120.341 158.08H121.097C123.113 158.08 129.077 158.248 130.925 159.004C133.445 160.012 135.293 162.028 135.293 164.716C135.293 167.908 132.269 170.68 128.657 170.68C128.321 170.68 127.817 170.596 127.397 170.512C125.717 170.26 124.121 170.176 122.441 170.176H120.509C120.845 174.544 121.769 178.744 122.525 183.028C122.609 183.448 122.609 183.784 122.609 184.204C122.609 187.48 119.585 190.252 115.889 190.252C112.529 190.252 110.009 188.068 109.421 185.212ZM140.909 183.028C140.909 182.356 140.909 181.684 140.993 181.012C141.833 171.52 146.117 140.86 155.105 133.804C156.869 132.376 159.221 131.536 161.573 131.536C165.689 131.536 168.965 134.392 170.645 137.416C177.197 149.092 179.045 165.976 179.465 178.996C179.465 180.172 179.633 181.264 179.633 182.44C179.633 183.364 179.549 184.288 179.297 185.212C178.457 187.648 175.601 189.328 172.913 189.328C169.805 189.328 166.949 187.228 166.277 184.204C166.193 183.616 166.193 183.028 166.109 182.44C164.009 182.272 161.825 182.272 159.641 182.272H154.349V183.616C154.349 187.144 151.997 190.252 147.629 190.252C142.841 190.252 140.909 186.64 140.909 183.028ZM155.861 170.008H159.305C161.405 170.008 163.505 170.008 165.605 170.176C164.933 162.868 163.589 155.56 161.153 148.504C158.465 155.476 157.037 162.784 155.861 170.008ZM185.047 162.952C185.047 148.588 194.035 129.604 212.851 129.604C216.631 129.604 219.319 130.108 220.999 134.056V134.308C221.083 134.308 221.083 134.392 221.083 134.476V134.56C221.335 134.728 221.587 134.812 221.839 134.98C222.259 135.148 222.595 135.316 222.847 135.484C230.575 139.684 233.431 150.1 233.431 158.248C233.431 165.64 231.331 173.536 226.963 179.836C227.635 180.844 228.475 181.936 229.147 183.112C229.903 184.372 230.407 185.632 230.407 186.976C230.407 190.42 227.887 193.78 223.771 193.78C220.915 193.78 219.151 192.352 217.723 190.084C217.387 189.496 217.051 188.992 216.715 188.404C214.363 189.412 211.759 189.832 209.155 189.832C192.439 189.832 185.047 176.224 185.047 162.952ZM198.319 162.7C198.319 169.336 200.587 176.224 208.567 176.644C207.895 175.636 207.055 174.796 206.047 173.956C204.619 172.948 203.611 170.68 203.611 169C203.611 165.724 205.543 163.288 208.987 162.364C209.323 162.196 209.743 162.196 210.163 162.196C213.775 162.196 216.547 165.22 218.395 167.572C219.487 164.38 220.075 160.684 220.075 157.492C220.075 153.544 219.151 147.832 214.951 146.152C214.531 145.9 214.111 145.732 213.691 145.48C212.935 145.06 212.263 144.388 211.507 142.96C202.603 143.884 198.319 155.56 198.319 162.7ZM236.217 134.644C236.217 132.964 237.645 128.932 238.905 127.672C240.165 126.496 241.173 125.824 243.105 125.824C246.465 125.824 248.481 128.596 248.481 131.368C248.481 132.124 248.229 132.712 247.977 133.216C247.725 133.72 247.473 134.224 247.221 134.812C247.137 134.98 247.053 135.148 246.969 135.4C246.969 135.568 246.885 135.736 246.885 135.988C246.717 136.408 246.633 136.912 246.297 137.332C245.289 138.844 243.609 140.02 241.593 140.02C238.401 140.02 236.217 137.164 236.217 134.644ZM255.245 184.12C253.985 182.608 252.725 180.676 252.725 178.66C252.725 175.132 255.161 171.856 259.529 171.856C261.125 171.856 262.385 172.444 263.561 173.284C263.981 173.62 264.317 174.04 264.569 174.376C264.821 174.712 264.989 175.048 265.241 175.384C265.577 175.804 266.417 176.14 267.509 176.392C268.601 176.56 269.693 176.644 270.365 176.644C273.725 176.644 280.949 174.964 281.453 171.772V171.604C281.453 170.512 280.025 169.84 277.253 169.168C274.565 168.58 270.953 167.992 267.341 166.984C259.949 164.884 252.557 160.936 252.557 150.52C252.557 139.936 261.209 131.452 273.053 131.452C279.689 131.452 286.073 134.308 289.769 139.264C291.113 141.196 292.457 143.212 292.457 145.648C292.457 149.008 289.769 152.2 285.737 152.2C284.057 152.2 282.797 151.78 281.873 150.94C281.453 150.604 281.033 150.1 280.697 149.68C280.361 149.26 280.025 148.756 279.689 148.252C278.345 146.404 276.917 144.64 273.221 144.64C269.189 144.64 265.913 146.824 265.913 150.52C265.913 151.192 265.997 151.696 266.249 152.2C266.837 152.956 268.265 153.544 270.281 154.048C272.213 154.636 274.733 155.056 277.253 155.56C286.409 157.492 294.809 160.936 294.809 171.688C294.809 183.7 281.033 189.832 270.617 189.832C264.737 189.832 259.025 188.32 255.245 184.12Z" fill="white"/>
<g clip-path="url(#clip0_437_1303)">
<path d="M39.7929 79.1676C40.9921 77.0905 51.5995 81.3892 63.406 88.7092C75.2125 96.0292 83.6695 103.618 82.287 105.905C80.9046 108.191 70.4335 103.656 58.674 96.363C46.9144 89.0701 38.4997 81.1905 39.7929 79.1676Z" fill="white"/>
<path d="M30.8235 165.32C30.5834 162.916 40.5175 160.028 52.7271 157.321C64.9368 154.614 75.1243 153.131 75.9309 155.422C76.7375 157.713 67.3328 163.047 54.5369 165.793C41.741 168.539 31.0166 167.698 30.8235 165.32Z" fill="white"/>
<path d="M209.891 72.0062C210.569 74.4117 196.81 80.1271 181.811 90.1613C166.811 100.196 156.026 110.523 154.103 108.972C152.181 107.422 160.542 93.8064 177.029 82.9315C193.516 72.0565 209.448 69.7362 209.891 72.0062Z" fill="white"/>
<path d="M124.171 33.4674C126.626 33.8782 125.55 50.0621 125.567 69.7736C125.585 89.4852 126.529 105.64 124.142 106.087C121.754 106.534 116.843 90.4176 116.905 69.8081C116.967 49.1986 121.937 32.9963 124.171 33.4674Z" fill="white"/>
</g>
<defs>
<clipPath id="clip0_437_1303">
<rect width="171" height="144" fill="white" transform="translate(0 148.09) rotate(-60)"/>
</clipPath>
</defs>
</svg>
