<svg width="305" height="301" viewBox="0 0 305 301" fill="none" xmlns="http://www.w3.org/2000/svg">
<path d="M264.097 138.925L264.258 139L265.483 141.322C265.604 141.558 265.674 141.817 265.689 142.082C265.704 142.347 265.663 142.613 265.57 142.861C265.476 143.109 265.331 143.335 265.144 143.524C264.958 143.713 264.734 143.861 264.487 143.958C259.697 146.029 254.894 148.104 250.034 150.004C248.645 150.511 247.501 148.411 248.809 147.682C252.493 145.708 256.232 143.84 259.972 141.996C246.769 136.51 231.895 142.245 222.301 152.338C211.667 163.526 206.627 178.596 201.379 192.774C193.92 213.115 180.103 246.357 152.473 233.26C128.989 222.126 130.359 192.774 136.867 171.726C144.759 146.169 161.717 111.726 133.959 91.7465C105.89 71.5417 71.6668 91.0712 57.9686 118.433C57.1927 120.1 54.5544 118.884 55.3726 117.225C65.8259 95.8221 87.1948 78.0341 112.17 80.0417C137.145 82.0493 154.752 101.801 153.456 126.658C151.934 155.743 127.086 185.962 140.582 215.095C146.65 228.211 163.738 237.164 176.656 227.73C190.389 217.684 195.093 196.995 200.797 181.911C206.357 167.21 213.556 151.761 226.917 142.614C236.118 136.315 247.749 133.635 258.368 136.674C256.671 133.619 255.165 130.462 253.856 127.222C252.841 124.698 256.849 123.267 257.817 125.769C259.602 130.295 261.7 134.691 264.097 138.925Z" fill="white"/>
<path d="M268.736 127.668C271.406 131.837 277.242 140.846 275.275 146.039C274.536 148 272.416 148.766 270.683 149.665C266.573 151.787 262.432 153.825 258.282 155.859C257.102 156.462 256.116 154.494 257.239 153.84C259.515 152.514 261.782 151.16 264.073 149.852C265.739 148.898 269.917 147.522 271.001 145.986C274.048 141.641 267.838 133.289 265.48 129.933C264.019 127.847 267.357 125.528 268.736 127.668Z" fill="white"/>
<path d="M268.543 159.515C272.88 157.13 277.446 155.244 281.806 153.008C282.449 152.764 283.056 152.434 283.611 152.026C284.628 151.797 284.828 151.267 284.202 150.434C284.32 149.337 283.232 147.39 282.89 146.366C281.929 143.303 281.02 140.229 280.022 137.172C279.194 134.666 283.176 133.291 283.826 135.784C284.902 139.937 286.121 144.055 287.258 148.225C287.676 149.803 288.6 151.904 287.663 153.497C286.553 155.389 282.956 156.182 281.196 156.919C277.315 158.571 273.468 160.078 269.508 161.405C268.423 161.706 267.461 160.107 268.543 159.515Z" fill="white"/>
</svg>
