<svg width="231" height="233" viewBox="0 0 231 233" fill="none" xmlns="http://www.w3.org/2000/svg">
<path d="M77.8432 52.3635C95.7051 78.5618 139.507 85.9818 146.221 64.8839C149.86 53.4789 137.584 47.5022 131.143 59.3694C125.936 68.9712 133.911 76.2879 141.922 81.4184C156.039 90.5366 172.93 105.609 166.694 123.537C159.651 143.783 138.909 144.043 126.718 159.66C119.235 169.238 113.591 179.694 114.768 190.802" stroke="#54D1CE" stroke-width="2" stroke-linecap="round" stroke-linejoin="round" stroke-dasharray="8 8"/>
<path d="M105.684 200.381C105.653 200.35 105.623 200.319 105.593 200.288C105.359 200.05 105.303 199.811 105.328 199.6C105.356 199.373 105.484 199.134 105.691 198.945C105.898 198.757 106.153 198.646 106.392 198.636C106.616 198.627 106.858 198.704 107.083 198.952C107.181 199.061 107.286 199.178 107.398 199.303C108.463 200.489 110.138 202.354 111.987 203.824C113.01 204.637 114.111 205.35 115.216 205.759C116.324 206.169 117.477 206.288 118.56 205.845L118.561 205.845C118.983 205.671 119.393 205.335 119.768 204.961C120.15 204.58 120.533 204.12 120.896 203.657C121.17 203.307 121.44 202.946 121.692 202.608C121.772 202.5 121.851 202.394 121.928 202.292C122.249 201.864 122.526 201.505 122.753 201.259L122.753 201.258C123.618 200.315 124.493 199.385 125.37 198.453C125.86 197.933 126.35 197.412 126.84 196.888L126.84 196.888C126.901 196.823 126.961 196.805 127.028 196.808C127.109 196.812 127.211 196.85 127.304 196.927C127.397 197.005 127.445 197.093 127.459 197.158C127.469 197.207 127.466 197.261 127.405 197.334L127.405 197.334L127.399 197.341C125.203 200.062 123.007 202.771 120.756 205.443C120.6 205.628 120.451 205.812 120.305 205.992C119.977 206.398 119.661 206.788 119.299 207.137C118.795 207.624 118.265 207.961 117.624 208.05L117.624 208.05C116.709 208.177 115.672 207.957 114.56 207.471C113.452 206.987 112.306 206.256 111.191 205.412C109.011 203.761 107.005 201.723 105.684 200.381Z" fill="black" stroke="#54D1CE"/>
<path d="M129.138 206.171L129.137 206.172C127.905 207.559 126.752 209.011 125.605 210.479C125.431 210.7 125.258 210.923 125.084 211.145C124.118 212.383 123.148 213.627 122.138 214.833C121.848 215.267 121.504 215.663 121.114 216.011C120.929 216.364 120.646 216.713 120.204 216.773C119.79 216.828 119.444 216.601 119.181 216.33C118.953 216.276 118.729 216.181 118.522 216.074C118.249 215.934 117.973 215.757 117.714 215.578C117.497 215.429 117.283 215.273 117.088 215.13C117.049 215.101 117.011 215.073 116.973 215.046C116.744 214.878 116.553 214.741 116.4 214.648C115.634 214.202 114.863 213.759 114.09 213.315C112.757 212.549 111.419 211.78 110.097 210.989L110.095 210.989C109.793 210.806 109.519 210.799 109.286 210.876C109.04 210.957 108.811 211.145 108.655 211.391C108.498 211.639 108.439 211.907 108.474 212.128C108.507 212.33 108.624 212.535 108.921 212.69C108.921 212.69 108.921 212.69 108.921 212.69L108.691 213.134C110.457 214.046 112.203 214.996 113.954 215.948C115.063 216.551 116.175 217.156 117.295 217.753L129.138 206.171ZM129.138 206.171C129.201 206.1 129.241 206.099 129.259 206.1C129.294 206.101 129.358 206.119 129.43 206.184C129.588 206.324 129.616 206.507 129.56 206.623C127.928 209.303 126.182 211.873 124.321 214.446L124.321 214.446L124.319 214.449C124.118 214.73 123.9 215.081 123.675 215.444C123.652 215.481 123.629 215.519 123.605 215.556C123.351 215.966 123.082 216.394 122.793 216.8C122.196 217.635 121.585 218.263 120.965 218.46L120.964 218.46C120.466 218.619 119.92 218.517 119.312 218.259C118.904 218.085 118.534 217.874 118.159 217.66C117.952 217.543 117.745 217.424 117.529 217.311L129.138 206.171Z" fill="black" stroke="#54D1CE"/>
<path d="M72.0633 40.412C72.4979 41.8378 73.0049 43.2405 73.5824 44.6147" stroke="#54D1CE" stroke-width="2" stroke-linecap="round" stroke-linejoin="round"/>
</svg>
