<svg width="919" height="782" viewBox="0 0 919 782" fill="none" xmlns="http://www.w3.org/2000/svg">
<g filter="url(#filter0_f_319_1002)">
<path d="M350 432C350 375.509 371.651 321.332 410.19 281.386C448.728 241.441 500.998 219 555.5 219C610.002 219 662.272 241.441 700.81 281.386C739.349 321.331 761 375.509 761 432L592.878 432C592.878 421.725 588.94 411.871 581.93 404.605C574.92 397.34 565.413 393.258 555.5 393.258C545.587 393.258 536.08 397.34 529.07 404.605C522.06 411.871 518.122 421.725 518.122 432L350 432Z" fill="url(#paint0_linear_319_1002)" fill-opacity="0.5"/>
</g>
<defs>
<filter id="filter0_f_319_1002" x="0" y="-131" width="1111" height="913" filterUnits="userSpaceOnUse" color-interpolation-filters="sRGB">
<feFlood flood-opacity="0" result="BackgroundImageFix"/>
<feBlend mode="normal" in="SourceGraphic" in2="BackgroundImageFix" result="shape"/>
<feGaussianBlur stdDeviation="175" result="effect1_foregroundBlur_319_1002"/>
</filter>
<linearGradient id="paint0_linear_319_1002" x1="555.5" y1="645" x2="555.5" y2="219" gradientUnits="userSpaceOnUse">
<stop stop-color="#008080"/>
<stop offset="0.9999" stop-color="#008080"/>
</linearGradient>
</defs>
</svg>
