<svg width="55" height="56" viewBox="0 0 55 56" fill="none" xmlns="http://www.w3.org/2000/svg">
<path d="M11.7859 0.720271C20.7789 23.94 19.6413 28.1748 0.246268 43.7855C23.4636 34.7952 27.6998 35.9273 43.3122 55.3253C34.3192 32.1056 35.4533 27.8729 54.8513 12.2592C31.631 21.2525 27.3984 20.1183 11.7859 0.720271ZM36.6489 30.4616C35.8016 33.6211 35.8458 37.094 36.7899 41.3902C37.1168 42.8872 37.5492 44.4929 38.1297 46.3429C36.8179 44.9152 35.6426 43.7384 34.5105 42.7062C31.2575 39.7431 28.2729 37.9678 25.1165 37.1198C21.9601 36.2718 18.4866 36.321 14.1879 37.2607C12.6906 37.5889 11.0858 38.0208 9.2344 38.6009C10.663 37.2886 11.8394 36.1147 12.8719 34.9812C15.8341 31.7287 17.6098 28.745 18.4581 25.5872C19.3065 22.4294 19.2613 18.9547 18.3171 14.6586C17.9888 13.1612 17.5578 11.5558 16.9773 9.70584C18.2892 11.1336 19.4631 12.31 20.5966 13.3425C23.8495 16.3057 26.8333 18.0814 29.9906 18.929C33.1478 19.7765 36.623 19.7322 40.9191 18.7881C42.417 18.4607 44.0218 18.0288 45.8718 17.4483C44.4446 18.7611 43.2682 19.935 42.2352 21.0676C39.2704 24.3156 37.4957 27.3011 36.6489 30.4616Z" fill="white"/>
</svg>
