<svg width="81" height="82" viewBox="0 0 81 82" fill="none" xmlns="http://www.w3.org/2000/svg">
<g clip-path="url(#clip0_319_1661)">
<path d="M52.0029 69.7359C46.9873 46.0837 48.8218 41.8394 69.5033 29.3164C45.8511 34.3321 41.6072 32.4985 29.0842 11.8169C34.0999 35.4692 32.2663 39.7131 11.5844 52.2351C35.2351 47.2157 39.4809 49.054 52.0029 69.7359ZM31.6405 36.9213C33.5213 32.5773 33.6306 27.6149 32.5951 20.6894C36.5797 26.4479 40.055 29.9919 44.399 31.8727C48.743 33.7535 53.7054 33.8628 60.6309 32.8273C54.8733 36.8115 51.3294 40.2868 49.4495 44.6359C47.5696 48.985 47.4593 53.9423 48.4939 60.8681C44.5106 55.1102 41.0353 51.5663 36.6909 49.6845C32.3466 47.8027 27.3845 47.6943 20.4568 48.7243C26.2157 44.7406 29.7597 41.2653 31.6405 36.9213Z" fill="white"/>
<path d="M60.9465 42.7231C62.5415 50.2362 61.9565 51.5872 55.3864 55.5651C62.8995 53.9701 64.2505 54.5551 68.2284 61.1253C66.6343 53.6118 67.2183 52.2611 73.7885 48.2833C66.2745 49.8786 64.9214 49.2966 60.9465 42.7231ZM66.65 52.8172C66.2722 53.6899 66.0931 54.6122 66.0713 55.6741C65.3297 54.9142 64.5681 54.3643 63.6954 53.9864C62.8226 53.6085 61.9004 53.4294 60.8388 53.4086C61.5983 52.6661 62.1483 51.9044 62.5262 51.0317C62.904 50.159 63.0832 49.2368 63.104 48.1752C63.8465 48.9347 64.6085 49.4856 65.4809 49.8625C66.3532 50.2395 67.2758 50.4195 68.3377 50.4413C67.5778 51.1828 67.027 51.9449 66.65 52.8172Z" fill="white"/>
<path d="M35.1853 59.0091C36.3844 64.6547 35.9449 65.668 31.0087 68.6572C36.6538 67.4594 37.6677 67.8976 40.6563 72.8351C39.4581 67.1891 39.8976 66.1758 44.8338 63.1866C39.1843 64.384 38.1749 63.9462 35.1853 59.0091ZM39.1477 66.4541C38.9383 66.9414 38.7997 67.4563 38.7363 67.9829C37.9214 67.295 36.9219 66.8623 35.8626 66.7387C36.55 65.9231 36.9825 64.9235 37.1064 63.864C37.9224 64.5513 38.922 64.9841 39.9815 65.1088C39.6403 65.5143 39.3593 65.9667 39.147 66.4522L39.1477 66.4541Z" fill="white"/>
<path d="M21.7634 52.8803C22.9616 58.5263 22.5221 59.5396 17.5859 62.5288C23.2309 61.331 24.2448 61.7692 27.2344 66.7063C26.0353 61.0607 26.4748 60.0474 31.411 57.0582C25.7659 58.256 24.7501 57.8185 21.7634 52.8803ZM25.7249 60.3257C25.5153 60.8128 25.3771 61.3276 25.3144 61.8542C24.4988 61.1668 23.4991 60.7342 22.4397 60.6103C23.127 59.7944 23.5598 58.7948 23.6845 57.7353C24.4998 58.4231 25.4992 58.8561 26.5586 58.9804C26.2174 59.3859 25.9364 59.8383 25.7241 60.3238L25.7249 60.3257Z" fill="white"/>
</g>
<defs>
<clipPath id="clip0_319_1661">
<rect width="62.2887" height="62.2887" fill="white" transform="translate(80.9629 58.2764) rotate(158.411)"/>
</clipPath>
</defs>
</svg>
